<mxfile host="65bd71144e">
    <diagram id="Ht1M8jgEwFfnCIfOTk4-" name="Infrastructure Diagram">
        <mxGraphModel dx="1769" dy="1306" grid="1" gridSize="10" guides="1" tooltips="1" connect="1" arrows="1" fold="1" page="1" pageScale="1" pageWidth="1169" pageHeight="827" math="0" shadow="0">
            <root>
                <mxCell id="0"/>
                <mxCell id="1" parent="0"/>
                <mxCell id="PEoc47Eq1kYvJuYxyeCo-51" value="" style="rounded=1;whiteSpace=wrap;html=1;dashed=1;" parent="1" vertex="1">
                    <mxGeometry x="160" y="-500" width="320" height="328" as="geometry"/>
                </mxCell>
                <mxCell id="PEoc47Eq1kYvJuYxyeCo-30" value="" style="rounded=1;whiteSpace=wrap;html=1;dashed=1;" parent="1" vertex="1">
                    <mxGeometry x="120" y="-740" width="840" height="568" as="geometry"/>
                </mxCell>
                <mxCell id="PEoc47Eq1kYvJuYxyeCo-52" value="" style="rounded=1;whiteSpace=wrap;html=1;dashed=1;" parent="1" vertex="1">
                    <mxGeometry x="170" y="-705" width="300" height="148" as="geometry"/>
                </mxCell>
                <mxCell id="PEoc47Eq1kYvJuYxyeCo-23" value="" style="rounded=1;whiteSpace=wrap;html=1;dashed=1;" parent="1" vertex="1">
                    <mxGeometry x="573.5" y="-538" width="320" height="178" as="geometry"/>
                </mxCell>
                <mxCell id="PEoc47Eq1kYvJuYxyeCo-22" value="" style="rounded=1;whiteSpace=wrap;html=1;dashed=1;" parent="1" vertex="1">
                    <mxGeometry x="150" y="-510" width="320" height="328" as="geometry"/>
                </mxCell>
                <mxCell id="PEoc47Eq1kYvJuYxyeCo-45" style="edgeStyle=orthogonalEdgeStyle;rounded=0;orthogonalLoop=1;jettySize=auto;html=1;entryX=0.005;entryY=0.63;entryDx=0;entryDy=0;entryPerimeter=0;" parent="1" source="PEoc47Eq1kYvJuYxyeCo-5" target="PEoc47Eq1kYvJuYxyeCo-13" edge="1">
                    <mxGeometry relative="1" as="geometry">
                        <Array as="points">
                            <mxPoint x="115" y="-437"/>
                        </Array>
                    </mxGeometry>
                </mxCell>
                <mxCell id="PEoc47Eq1kYvJuYxyeCo-5" value="" style="aspect=fixed;sketch=0;html=1;dashed=0;whitespace=wrap;verticalLabelPosition=bottom;verticalAlign=top;fillColor=#2875E2;strokeColor=#ffffff;points=[[0.005,0.63,0],[0.1,0.2,0],[0.9,0.2,0],[0.5,0,0],[0.995,0.63,0],[0.72,0.99,0],[0.5,1,0],[0.28,0.99,0]];shape=mxgraph.kubernetes.icon2;kubernetesLabel=1;prIcon=user" parent="1" vertex="1">
                    <mxGeometry x="20" y="-467" width="50" height="48" as="geometry"/>
                </mxCell>
                <mxCell id="PEoc47Eq1kYvJuYxyeCo-7" value="Real MP" style="aspect=fixed;sketch=0;html=1;dashed=0;whitespace=wrap;verticalLabelPosition=bottom;verticalAlign=top;fillColor=#2875E2;strokeColor=#ffffff;points=[[0.005,0.63,0],[0.1,0.2,0],[0.9,0.2,0],[0.5,0,0],[0.995,0.63,0],[0.72,0.99,0],[0.5,1,0],[0.28,0.99,0]];shape=mxgraph.kubernetes.icon2;kubernetesLabel=1;prIcon=api" parent="1" vertex="1">
                    <mxGeometry x="510" y="-827" width="50" height="48" as="geometry"/>
                </mxCell>
                <mxCell id="PEoc47Eq1kYvJuYxyeCo-66" style="edgeStyle=orthogonalEdgeStyle;rounded=0;orthogonalLoop=1;jettySize=auto;html=1;" parent="1" source="PEoc47Eq1kYvJuYxyeCo-8" target="PEoc47Eq1kYvJuYxyeCo-53" edge="1">
                    <mxGeometry relative="1" as="geometry">
                        <Array as="points">
                            <mxPoint x="375" y="-530"/>
                            <mxPoint x="425" y="-530"/>
                        </Array>
                    </mxGeometry>
                </mxCell>
                <mxCell id="PEoc47Eq1kYvJuYxyeCo-8" value="" style="aspect=fixed;sketch=0;html=1;dashed=0;whitespace=wrap;verticalLabelPosition=bottom;verticalAlign=top;fillColor=#2875E2;strokeColor=#ffffff;points=[[0.005,0.63,0],[0.1,0.2,0],[0.9,0.2,0],[0.5,0,0],[0.995,0.63,0],[0.72,0.99,0],[0.5,1,0],[0.28,0.99,0]];shape=mxgraph.kubernetes.icon2;kubernetesLabel=1;prIcon=pod" parent="1" vertex="1">
                    <mxGeometry x="350" y="-473" width="50" height="48" as="geometry"/>
                </mxCell>
                <mxCell id="PEoc47Eq1kYvJuYxyeCo-10" value="DB PostgreSQL" style="image;aspect=fixed;html=1;points=[];align=center;fontSize=12;image=img/lib/azure2/databases/Azure_Database_PostgreSQL_Server.svg;" parent="1" vertex="1">
                    <mxGeometry x="814" y="-491" width="48" height="64" as="geometry"/>
                </mxCell>
                <mxCell id="PEoc47Eq1kYvJuYxyeCo-39" style="edgeStyle=orthogonalEdgeStyle;rounded=0;orthogonalLoop=1;jettySize=auto;html=1;" parent="1" source="PEoc47Eq1kYvJuYxyeCo-13" target="PEoc47Eq1kYvJuYxyeCo-14" edge="1">
                    <mxGeometry relative="1" as="geometry"/>
                </mxCell>
                <mxCell id="PEoc47Eq1kYvJuYxyeCo-13" value="" style="aspect=fixed;sketch=0;html=1;dashed=0;whitespace=wrap;verticalLabelPosition=bottom;verticalAlign=top;fillColor=#2875E2;strokeColor=#ffffff;points=[[0.005,0.63,0],[0.1,0.2,0],[0.9,0.2,0],[0.5,0,0],[0.995,0.63,0],[0.72,0.99,0],[0.5,1,0],[0.28,0.99,0]];shape=mxgraph.kubernetes.icon2;kubernetesLabel=1;prIcon=ing" parent="1" vertex="1">
                    <mxGeometry x="160" y="-467" width="50" height="48" as="geometry"/>
                </mxCell>
                <mxCell id="PEoc47Eq1kYvJuYxyeCo-14" value="LB tech-challenge-api" style="aspect=fixed;sketch=0;html=1;dashed=0;whitespace=wrap;verticalLabelPosition=bottom;verticalAlign=top;fillColor=#2875E2;strokeColor=#ffffff;points=[[0.005,0.63,0],[0.1,0.2,0],[0.9,0.2,0],[0.5,0,0],[0.995,0.63,0],[0.72,0.99,0],[0.5,1,0],[0.28,0.99,0]];shape=mxgraph.kubernetes.icon2;kubernetesLabel=1;prIcon=svc" parent="1" vertex="1">
                    <mxGeometry x="250" y="-467" width="50" height="48" as="geometry"/>
                </mxCell>
                <mxCell id="PEoc47Eq1kYvJuYxyeCo-15" value="ClusterIP postgres" style="aspect=fixed;sketch=0;html=1;dashed=0;whitespace=wrap;verticalLabelPosition=bottom;verticalAlign=top;fillColor=#2875E2;strokeColor=#ffffff;points=[[0.005,0.63,0],[0.1,0.2,0],[0.9,0.2,0],[0.5,0,0],[0.995,0.63,0],[0.72,0.99,0],[0.5,1,0],[0.28,0.99,0]];shape=mxgraph.kubernetes.icon2;kubernetesLabel=1;prIcon=svc" parent="1" vertex="1">
                    <mxGeometry x="604" y="-480" width="50" height="48" as="geometry"/>
                </mxCell>
                <mxCell id="PEoc47Eq1kYvJuYxyeCo-33" style="edgeStyle=orthogonalEdgeStyle;rounded=0;orthogonalLoop=1;jettySize=auto;html=1;dashed=1;" parent="1" source="PEoc47Eq1kYvJuYxyeCo-17" target="PEoc47Eq1kYvJuYxyeCo-29" edge="1">
                    <mxGeometry relative="1" as="geometry"/>
                </mxCell>
                <mxCell id="PEoc47Eq1kYvJuYxyeCo-37" style="edgeStyle=orthogonalEdgeStyle;rounded=0;orthogonalLoop=1;jettySize=auto;html=1;dashed=1;entryX=0.5;entryY=0;entryDx=0;entryDy=0;" parent="1" source="PEoc47Eq1kYvJuYxyeCo-17" target="PEoc47Eq1kYvJuYxyeCo-35" edge="1">
                    <mxGeometry relative="1" as="geometry">
                        <mxPoint x="330" y="-120" as="targetPoint"/>
                        <Array as="points">
                            <mxPoint x="310" y="-306"/>
                        </Array>
                    </mxGeometry>
                </mxCell>
                <mxCell id="PEoc47Eq1kYvJuYxyeCo-41" style="edgeStyle=orthogonalEdgeStyle;rounded=0;orthogonalLoop=1;jettySize=auto;html=1;dashed=1;" parent="1" source="PEoc47Eq1kYvJuYxyeCo-17" target="PEoc47Eq1kYvJuYxyeCo-19" edge="1">
                    <mxGeometry relative="1" as="geometry"/>
                </mxCell>
                <mxCell id="PEoc47Eq1kYvJuYxyeCo-17" value="" style="aspect=fixed;sketch=0;html=1;dashed=0;whitespace=wrap;verticalLabelPosition=bottom;verticalAlign=top;fillColor=#2875E2;strokeColor=#ffffff;points=[[0.005,0.63,0],[0.1,0.2,0],[0.9,0.2,0],[0.5,0,0],[0.995,0.63,0],[0.72,0.99,0],[0.5,1,0],[0.28,0.99,0]];shape=mxgraph.kubernetes.icon2;kubernetesLabel=1;prIcon=deploy" parent="1" vertex="1">
                    <mxGeometry x="350" y="-330" width="50" height="48" as="geometry"/>
                </mxCell>
                <mxCell id="PEoc47Eq1kYvJuYxyeCo-34" style="edgeStyle=orthogonalEdgeStyle;rounded=0;orthogonalLoop=1;jettySize=auto;html=1;dashed=1;" parent="1" source="PEoc47Eq1kYvJuYxyeCo-18" target="PEoc47Eq1kYvJuYxyeCo-17" edge="1">
                    <mxGeometry relative="1" as="geometry"/>
                </mxCell>
                <mxCell id="PEoc47Eq1kYvJuYxyeCo-18" value="" style="aspect=fixed;sketch=0;html=1;dashed=0;whitespace=wrap;verticalLabelPosition=bottom;verticalAlign=top;fillColor=#2875E2;strokeColor=#ffffff;points=[[0.005,0.63,0],[0.1,0.2,0],[0.9,0.2,0],[0.5,0,0],[0.995,0.63,0],[0.72,0.99,0],[0.5,1,0],[0.28,0.99,0]];shape=mxgraph.kubernetes.icon2;kubernetesLabel=1;prIcon=hpa" parent="1" vertex="1">
                    <mxGeometry x="350" y="-250" width="50" height="48" as="geometry"/>
                </mxCell>
                <mxCell id="PEoc47Eq1kYvJuYxyeCo-19" value="" style="aspect=fixed;sketch=0;html=1;dashed=0;whitespace=wrap;verticalLabelPosition=bottom;verticalAlign=top;fillColor=#2875E2;strokeColor=#ffffff;points=[[0.005,0.63,0],[0.1,0.2,0],[0.9,0.2,0],[0.5,0,0],[0.995,0.63,0],[0.72,0.99,0],[0.5,1,0],[0.28,0.99,0]];shape=mxgraph.kubernetes.icon2;kubernetesLabel=1;prIcon=c_m" parent="1" vertex="1">
                    <mxGeometry x="220" y="-330" width="50" height="48" as="geometry"/>
                </mxCell>
                <mxCell id="PEoc47Eq1kYvJuYxyeCo-20" value="" style="aspect=fixed;sketch=0;html=1;dashed=0;whitespace=wrap;verticalLabelPosition=bottom;verticalAlign=top;fillColor=#2875E2;strokeColor=#ffffff;points=[[0.005,0.63,0],[0.1,0.2,0],[0.9,0.2,0],[0.5,0,0],[0.995,0.63,0],[0.72,0.99,0],[0.5,1,0],[0.28,0.99,0]];shape=mxgraph.kubernetes.icon2;kubernetesLabel=1;prIcon=sts" parent="1" vertex="1">
                    <mxGeometry x="708.5" y="-480" width="50" height="48" as="geometry"/>
                </mxCell>
                <mxCell id="PEoc47Eq1kYvJuYxyeCo-21" value="" style="aspect=fixed;sketch=0;html=1;dashed=0;whitespace=wrap;verticalLabelPosition=bottom;verticalAlign=top;fillColor=#2875E2;strokeColor=#ffffff;points=[[0.005,0.63,0],[0.1,0.2,0],[0.9,0.2,0],[0.5,0,0],[0.995,0.63,0],[0.72,0.99,0],[0.5,1,0],[0.28,0.99,0]];shape=mxgraph.kubernetes.icon2;kubernetesLabel=1;prIcon=secret" parent="1" vertex="1">
                    <mxGeometry x="220" y="-260" width="50" height="48" as="geometry"/>
                </mxCell>
                <mxCell id="PEoc47Eq1kYvJuYxyeCo-24" style="edgeStyle=orthogonalEdgeStyle;rounded=0;orthogonalLoop=1;jettySize=auto;html=1;entryX=0.005;entryY=0.63;entryDx=0;entryDy=0;entryPerimeter=0;" parent="1" source="PEoc47Eq1kYvJuYxyeCo-8" target="PEoc47Eq1kYvJuYxyeCo-15" edge="1">
                    <mxGeometry relative="1" as="geometry"/>
                </mxCell>
                <mxCell id="PEoc47Eq1kYvJuYxyeCo-26" style="edgeStyle=orthogonalEdgeStyle;rounded=0;orthogonalLoop=1;jettySize=auto;html=1;entryX=0.057;entryY=0.495;entryDx=0;entryDy=0;entryPerimeter=0;" parent="1" source="PEoc47Eq1kYvJuYxyeCo-15" target="PEoc47Eq1kYvJuYxyeCo-20" edge="1">
                    <mxGeometry relative="1" as="geometry"/>
                </mxCell>
                <mxCell id="PEoc47Eq1kYvJuYxyeCo-27" style="edgeStyle=orthogonalEdgeStyle;rounded=0;orthogonalLoop=1;jettySize=auto;html=1;entryX=0.026;entryY=0.547;entryDx=0;entryDy=0;entryPerimeter=0;" parent="1" source="PEoc47Eq1kYvJuYxyeCo-20" target="PEoc47Eq1kYvJuYxyeCo-10" edge="1">
                    <mxGeometry relative="1" as="geometry"/>
                </mxCell>
                <mxCell id="PEoc47Eq1kYvJuYxyeCo-28" style="edgeStyle=orthogonalEdgeStyle;rounded=0;orthogonalLoop=1;jettySize=auto;html=1;entryX=0.5;entryY=1;entryDx=0;entryDy=0;entryPerimeter=0;" parent="1" source="PEoc47Eq1kYvJuYxyeCo-8" target="PEoc47Eq1kYvJuYxyeCo-7" edge="1">
                    <mxGeometry relative="1" as="geometry">
                        <Array as="points">
                            <mxPoint x="375" y="-530"/>
                            <mxPoint x="535" y="-530"/>
                        </Array>
                    </mxGeometry>
                </mxCell>
                <mxCell id="PEoc47Eq1kYvJuYxyeCo-29" value="" style="aspect=fixed;sketch=0;html=1;dashed=0;whitespace=wrap;verticalLabelPosition=bottom;verticalAlign=top;fillColor=#2875E2;strokeColor=#ffffff;points=[[0.005,0.63,0],[0.1,0.2,0],[0.9,0.2,0],[0.5,0,0],[0.995,0.63,0],[0.72,0.99,0],[0.5,1,0],[0.28,0.99,0]];shape=mxgraph.kubernetes.icon2;kubernetesLabel=1;prIcon=rs" parent="1" vertex="1">
                    <mxGeometry x="350" y="-400" width="50" height="48" as="geometry"/>
                </mxCell>
                <mxCell id="PEoc47Eq1kYvJuYxyeCo-31" value="" style="aspect=fixed;sketch=0;html=1;dashed=0;whitespace=wrap;verticalLabelPosition=bottom;verticalAlign=top;fillColor=#2875E2;strokeColor=#ffffff;points=[[0.005,0.63,0],[0.1,0.2,0],[0.9,0.2,0],[0.5,0,0],[0.995,0.63,0],[0.72,0.99,0],[0.5,1,0],[0.28,0.99,0]];shape=mxgraph.kubernetes.icon2;kubernetesLabel=1;prIcon=ns" parent="1" vertex="1">
                    <mxGeometry x="120" y="-746" width="50" height="48" as="geometry"/>
                </mxCell>
                <mxCell id="PEoc47Eq1kYvJuYxyeCo-32" style="edgeStyle=orthogonalEdgeStyle;rounded=0;orthogonalLoop=1;jettySize=auto;html=1;entryX=0.5;entryY=1;entryDx=0;entryDy=0;entryPerimeter=0;dashed=1;" parent="1" source="PEoc47Eq1kYvJuYxyeCo-29" target="PEoc47Eq1kYvJuYxyeCo-8" edge="1">
                    <mxGeometry relative="1" as="geometry"/>
                </mxCell>
                <mxCell id="PEoc47Eq1kYvJuYxyeCo-35" value="Registry - GHCR" style="editableCssRules=.*;html=1;shape=image;verticalLabelPosition=bottom;labelBackgroundColor=#ffffff;verticalAlign=top;aspect=fixed;imageAspect=0;image=data:image/svg+xml,PHN2ZyB4bWxucz0iaHR0cDovL3d3dy53My5vcmcvMjAwMC9zdmciIHhtbG5zOnY9Imh0dHBzOi8vdmVjdGEuaW8vbmFubyIgd2lkdGg9IjM3Ny4xNTkzMDIxNjAyNjMwNSIgaGVpZ2h0PSIzMzYuMTYyNDk5MDAzMzEwOCIgdmlld0JveD0iLTAuMDU4MDAwMDA1NzgxNjUwNTQgMC4xMTI5OTk5OTgwMzMwNDY3MiA5OS43OTAwMDA5MTU1MjczNCA4OC45NDMwMDA3OTM0NTcwMyI+JiN4YTs8c3R5bGUgdHlwZT0idGV4dC9jc3MiPiYjeGE7CS5zdDB7ZmlsbDojNjY5ZGY2O30mI3hhOwkuc3Qxe2ZpbGw6I2FlY2JmYTt9JiN4YTsJLnN0MntmaWxsOiM0Mjg1ZjQ7fSYjeGE7PC9zdHlsZT4mI3hhOwk8cGF0aCBjbGFzcz0ic3QwIiBkPSJNNTMuMjQzIDYyLjA5VjQ3LjA5NGwxMy4yMDEgOC40MTZ2MTUuMDM4em0tMzMuMDIxIDBWNDcuMDk0bDEzLjIwMSA4LjQxNnYxNS4wMzh6bTE2LjUxMS0zMi4yODVWMTQuODFsMTMuMjAxIDguNDE2djE1LjAzOHptNjIuOTk5IDMzLjk2VjI1LjQwM2wtOS41NjItMS44ODR2NDIuMTMxem0tOTkuNzg4IDBWMjUuNDAzbDkuNTYyLTEuODg0djQyLjEzMXoiLz4mI3hhOwk8cGF0aCBjbGFzcz0ic3QxIiBkPSJNNTMuMTg1IDQ3LjA5NGwxMy4yNTgtOC4yODcgMTMuMDE2IDguMjM0LTEzLjAxNiA4LjQ2OXptLTMzLjAyMSAwbDEzLjI1OC04LjI4NyAxMy4wMTYgOC4yMzQtMTMuMDE2IDguNDY5ek0zNi42NzUgMTQuODFsMTMuMjU4LTguMjg3IDEzLjAxNiA4LjIzNC0xMy4wMTYgOC40Njl6bTYzLjA1NiA0OC45NTZ2MTIuMjE3TDc3LjAxIDg5LjA1NVY3Ny43NTJ6bTAtMzguMzYzVjEzLjE4Nkw3Ny4wMS4xMTN2MTEuMzAzek0tLjA1OCA2My43NjZ2MTIuMjE3bDIyLjcyMSAxMy4wNzNWNzcuNzUyem0wLTM4LjM2M1YxMy4xODZMMjIuNjYzLjExM3YxMS4zMDN6Ii8+JiN4YTsJPHBhdGggY2xhc3M9InN0MiIgZD0iTTY2LjQ0NCA3MC41NDdWNTUuNTFsMTMuMDE2LTguNDY5djE1LjR6bS0zMy4wMjEgMFY1NS41MWwxMy4wMTYtOC40Njl2MTUuNHptMTYuNTExLTMyLjI4NVYyMy4yMjVsMTMuMDE2LTguNDY5djE1LjR6bTQ5Ljc5OCAyNS41MDNsLTkuNTYyIDUuODh2LTMuOTk2em0wLTM4LjM2M2wtOS41NjItNS44OHYzLjk5NnpNLS4wNTggNjMuNzY2bDkuNTYyIDUuODh2LTMuOTk2em0wLTM4LjM2M2w5LjU2Mi01Ljg4djMuOTk2eiIvPiYjeGE7PC9zdmc+;" parent="1" vertex="1">
                    <mxGeometry x="290" y="-140" width="40" height="36" as="geometry"/>
                </mxCell>
                <mxCell id="PEoc47Eq1kYvJuYxyeCo-38" style="edgeStyle=orthogonalEdgeStyle;rounded=0;orthogonalLoop=1;jettySize=auto;html=1;entryX=0.005;entryY=0.63;entryDx=0;entryDy=0;entryPerimeter=0;" parent="1" source="PEoc47Eq1kYvJuYxyeCo-14" target="PEoc47Eq1kYvJuYxyeCo-8" edge="1">
                    <mxGeometry relative="1" as="geometry"/>
                </mxCell>
                <mxCell id="PEoc47Eq1kYvJuYxyeCo-42" style="edgeStyle=orthogonalEdgeStyle;rounded=0;orthogonalLoop=1;jettySize=auto;html=1;entryX=0.995;entryY=0.63;entryDx=0;entryDy=0;entryPerimeter=0;dashed=1;" parent="1" source="PEoc47Eq1kYvJuYxyeCo-17" target="PEoc47Eq1kYvJuYxyeCo-21" edge="1">
                    <mxGeometry relative="1" as="geometry"/>
                </mxCell>
                <mxCell id="PEoc47Eq1kYvJuYxyeCo-43" value="API" style="text;html=1;align=center;verticalAlign=middle;whiteSpace=wrap;rounded=0;" parent="1" vertex="1">
                    <mxGeometry x="280" y="-540" width="60" height="30" as="geometry"/>
                </mxCell>
                <mxCell id="PEoc47Eq1kYvJuYxyeCo-44" value="DB" style="text;html=1;align=center;verticalAlign=middle;whiteSpace=wrap;rounded=0;" parent="1" vertex="1">
                    <mxGeometry x="703.5" y="-568" width="60" height="30" as="geometry"/>
                </mxCell>
                <mxCell id="PEoc47Eq1kYvJuYxyeCo-48" value="Registry - GHCR" style="editableCssRules=.*;html=1;shape=image;verticalLabelPosition=bottom;labelBackgroundColor=#ffffff;verticalAlign=top;aspect=fixed;imageAspect=0;image=data:image/svg+xml,PHN2ZyB4bWxucz0iaHR0cDovL3d3dy53My5vcmcvMjAwMC9zdmciIHhtbG5zOnY9Imh0dHBzOi8vdmVjdGEuaW8vbmFubyIgd2lkdGg9IjM3Ny4xNTkzMDIxNjAyNjMwNSIgaGVpZ2h0PSIzMzYuMTYyNDk5MDAzMzEwOCIgdmlld0JveD0iLTAuMDU4MDAwMDA1NzgxNjUwNTQgMC4xMTI5OTk5OTgwMzMwNDY3MiA5OS43OTAwMDA5MTU1MjczNCA4OC45NDMwMDA3OTM0NTcwMyI+JiN4YTs8c3R5bGUgdHlwZT0idGV4dC9jc3MiPiYjeGE7CS5zdDB7ZmlsbDojNjY5ZGY2O30mI3hhOwkuc3Qxe2ZpbGw6I2FlY2JmYTt9JiN4YTsJLnN0MntmaWxsOiM0Mjg1ZjQ7fSYjeGE7PC9zdHlsZT4mI3hhOwk8cGF0aCBjbGFzcz0ic3QwIiBkPSJNNTMuMjQzIDYyLjA5VjQ3LjA5NGwxMy4yMDEgOC40MTZ2MTUuMDM4em0tMzMuMDIxIDBWNDcuMDk0bDEzLjIwMSA4LjQxNnYxNS4wMzh6bTE2LjUxMS0zMi4yODVWMTQuODFsMTMuMjAxIDguNDE2djE1LjAzOHptNjIuOTk5IDMzLjk2VjI1LjQwM2wtOS41NjItMS44ODR2NDIuMTMxem0tOTkuNzg4IDBWMjUuNDAzbDkuNTYyLTEuODg0djQyLjEzMXoiLz4mI3hhOwk8cGF0aCBjbGFzcz0ic3QxIiBkPSJNNTMuMTg1IDQ3LjA5NGwxMy4yNTgtOC4yODcgMTMuMDE2IDguMjM0LTEzLjAxNiA4LjQ2OXptLTMzLjAyMSAwbDEzLjI1OC04LjI4NyAxMy4wMTYgOC4yMzQtMTMuMDE2IDguNDY5ek0zNi42NzUgMTQuODFsMTMuMjU4LTguMjg3IDEzLjAxNiA4LjIzNC0xMy4wMTYgOC40Njl6bTYzLjA1NiA0OC45NTZ2MTIuMjE3TDc3LjAxIDg5LjA1NVY3Ny43NTJ6bTAtMzguMzYzVjEzLjE4Nkw3Ny4wMS4xMTN2MTEuMzAzek0tLjA1OCA2My43NjZ2MTIuMjE3bDIyLjcyMSAxMy4wNzNWNzcuNzUyem0wLTM4LjM2M1YxMy4xODZMMjIuNjYzLjExM3YxMS4zMDN6Ii8+JiN4YTsJPHBhdGggY2xhc3M9InN0MiIgZD0iTTY2LjQ0NCA3MC41NDdWNTUuNTFsMTMuMDE2LTguNDY5djE1LjR6bS0zMy4wMjEgMFY1NS41MWwxMy4wMTYtOC40Njl2MTUuNHptMTYuNTExLTMyLjI4NVYyMy4yMjVsMTMuMDE2LTguNDY5djE1LjR6bTQ5Ljc5OCAyNS41MDNsLTkuNTYyIDUuODh2LTMuOTk2em0wLTM4LjM2M2wtOS41NjItNS44OHYzLjk5NnpNLS4wNTggNjMuNzY2bDkuNTYyIDUuODh2LTMuOTk2em0wLTM4LjM2M2w5LjU2Mi01Ljg4djMuOTk2eiIvPiYjeGE7PC9zdmc+;" parent="1" vertex="1">
                    <mxGeometry x="265" y="-804" width="40" height="36" as="geometry"/>
                </mxCell>
                <mxCell id="PEoc47Eq1kYvJuYxyeCo-65" style="edgeStyle=orthogonalEdgeStyle;rounded=0;orthogonalLoop=1;jettySize=auto;html=1;" parent="1" source="PEoc47Eq1kYvJuYxyeCo-53" target="PEoc47Eq1kYvJuYxyeCo-54" edge="1">
                    <mxGeometry relative="1" as="geometry"/>
                </mxCell>
                <mxCell id="PEoc47Eq1kYvJuYxyeCo-53" value="ClusterIP Mock MP" style="aspect=fixed;sketch=0;html=1;dashed=0;whitespace=wrap;verticalLabelPosition=bottom;verticalAlign=top;fillColor=#2875E2;strokeColor=#ffffff;points=[[0.005,0.63,0],[0.1,0.2,0],[0.9,0.2,0],[0.5,0,0],[0.995,0.63,0],[0.72,0.99,0],[0.5,1,0],[0.28,0.99,0]];shape=mxgraph.kubernetes.icon2;kubernetesLabel=1;prIcon=svc" parent="1" vertex="1">
                    <mxGeometry x="400" y="-630" width="50" height="48" as="geometry"/>
                </mxCell>
                <mxCell id="PEoc47Eq1kYvJuYxyeCo-54" value="" style="aspect=fixed;sketch=0;html=1;dashed=0;whitespace=wrap;verticalLabelPosition=bottom;verticalAlign=top;fillColor=#2875E2;strokeColor=#ffffff;points=[[0.005,0.63,0],[0.1,0.2,0],[0.9,0.2,0],[0.5,0,0],[0.995,0.63,0],[0.72,0.99,0],[0.5,1,0],[0.28,0.99,0]];shape=mxgraph.kubernetes.icon2;kubernetesLabel=1;prIcon=pod" parent="1" vertex="1">
                    <mxGeometry x="330" y="-630" width="50" height="48" as="geometry"/>
                </mxCell>
                <mxCell id="PEoc47Eq1kYvJuYxyeCo-55" value="" style="aspect=fixed;sketch=0;html=1;dashed=0;whitespace=wrap;verticalLabelPosition=bottom;verticalAlign=top;fillColor=#2875E2;strokeColor=#ffffff;points=[[0.005,0.63,0],[0.1,0.2,0],[0.9,0.2,0],[0.5,0,0],[0.995,0.63,0],[0.72,0.99,0],[0.5,1,0],[0.28,0.99,0]];shape=mxgraph.kubernetes.icon2;kubernetesLabel=1;prIcon=rs" parent="1" vertex="1">
                    <mxGeometry x="260" y="-630" width="50" height="48" as="geometry"/>
                </mxCell>
                <mxCell id="PEoc47Eq1kYvJuYxyeCo-58" style="edgeStyle=orthogonalEdgeStyle;rounded=0;orthogonalLoop=1;jettySize=auto;html=1;entryX=0.5;entryY=1;entryDx=0;entryDy=0;dashed=1;" parent="1" source="PEoc47Eq1kYvJuYxyeCo-56" target="PEoc47Eq1kYvJuYxyeCo-48" edge="1">
                    <mxGeometry relative="1" as="geometry"/>
                </mxCell>
                <mxCell id="PEoc47Eq1kYvJuYxyeCo-56" value="" style="aspect=fixed;sketch=0;html=1;dashed=0;whitespace=wrap;verticalLabelPosition=bottom;verticalAlign=top;fillColor=#2875E2;strokeColor=#ffffff;points=[[0.005,0.63,0],[0.1,0.2,0],[0.9,0.2,0],[0.5,0,0],[0.995,0.63,0],[0.72,0.99,0],[0.5,1,0],[0.28,0.99,0]];shape=mxgraph.kubernetes.icon2;kubernetesLabel=1;prIcon=deploy" parent="1" vertex="1">
                    <mxGeometry x="260" y="-700" width="50" height="48" as="geometry"/>
                </mxCell>
                <mxCell id="PEoc47Eq1kYvJuYxyeCo-57" value="" style="aspect=fixed;sketch=0;html=1;dashed=0;whitespace=wrap;verticalLabelPosition=bottom;verticalAlign=top;fillColor=#2875E2;strokeColor=#ffffff;points=[[0.005,0.63,0],[0.1,0.2,0],[0.9,0.2,0],[0.5,0,0],[0.995,0.63,0],[0.72,0.99,0],[0.5,1,0],[0.28,0.99,0]];shape=mxgraph.kubernetes.icon2;kubernetesLabel=1;prIcon=hpa" parent="1" vertex="1">
                    <mxGeometry x="180" y="-700" width="50" height="48" as="geometry"/>
                </mxCell>
                <mxCell id="PEoc47Eq1kYvJuYxyeCo-59" style="edgeStyle=orthogonalEdgeStyle;rounded=0;orthogonalLoop=1;jettySize=auto;html=1;entryX=0.092;entryY=0.517;entryDx=0;entryDy=0;entryPerimeter=0;dashed=1;" parent="1" source="PEoc47Eq1kYvJuYxyeCo-57" target="PEoc47Eq1kYvJuYxyeCo-56" edge="1">
                    <mxGeometry relative="1" as="geometry"/>
                </mxCell>
                <mxCell id="PEoc47Eq1kYvJuYxyeCo-60" style="edgeStyle=orthogonalEdgeStyle;rounded=0;orthogonalLoop=1;jettySize=auto;html=1;entryX=0.5;entryY=0;entryDx=0;entryDy=0;entryPerimeter=0;dashed=1;" parent="1" source="PEoc47Eq1kYvJuYxyeCo-56" target="PEoc47Eq1kYvJuYxyeCo-55" edge="1">
                    <mxGeometry relative="1" as="geometry"/>
                </mxCell>
                <mxCell id="PEoc47Eq1kYvJuYxyeCo-63" style="edgeStyle=orthogonalEdgeStyle;rounded=0;orthogonalLoop=1;jettySize=auto;html=1;entryX=0;entryY=0.5;entryDx=0;entryDy=0;entryPerimeter=0;dashed=1;" parent="1" source="PEoc47Eq1kYvJuYxyeCo-55" target="PEoc47Eq1kYvJuYxyeCo-54" edge="1">
                    <mxGeometry relative="1" as="geometry"/>
                </mxCell>
                <mxCell id="PEoc47Eq1kYvJuYxyeCo-67" value="Mock MP" style="text;html=1;align=center;verticalAlign=middle;whiteSpace=wrap;rounded=0;" parent="1" vertex="1">
                    <mxGeometry x="290" y="-735" width="60" height="30" as="geometry"/>
                </mxCell>
                <mxCell id="PEoc47Eq1kYvJuYxyeCo-68" style="edgeStyle=orthogonalEdgeStyle;rounded=0;orthogonalLoop=1;jettySize=auto;html=1;entryX=0.005;entryY=0.63;entryDx=0;entryDy=0;entryPerimeter=0;dashed=1;" parent="1" source="PEoc47Eq1kYvJuYxyeCo-7" target="PEoc47Eq1kYvJuYxyeCo-13" edge="1">
                    <mxGeometry relative="1" as="geometry">
                        <Array as="points">
                            <mxPoint x="80" y="-810"/>
                            <mxPoint x="80" y="-437"/>
                        </Array>
                    </mxGeometry>
                </mxCell>
                <mxCell id="PEoc47Eq1kYvJuYxyeCo-69" style="edgeStyle=orthogonalEdgeStyle;rounded=0;orthogonalLoop=1;jettySize=auto;html=1;entryX=0.5;entryY=0;entryDx=0;entryDy=0;entryPerimeter=0;" parent="1" source="PEoc47Eq1kYvJuYxyeCo-54" target="PEoc47Eq1kYvJuYxyeCo-14" edge="1">
                    <mxGeometry relative="1" as="geometry">
                        <Array as="points">
                            <mxPoint x="355" y="-540"/>
                            <mxPoint x="275" y="-540"/>
                        </Array>
                    </mxGeometry>
                </mxCell>
            </root>
        </mxGraphModel>
    </diagram>
    <diagram id="ogLjITc7Ao22CJxwSJxq" name="C4 Model - L1 Context">
        <mxGraphModel dx="1226" dy="872" grid="1" gridSize="10" guides="1" tooltips="1" connect="1" arrows="1" fold="1" page="1" pageScale="1" pageWidth="827" pageHeight="1169" math="0" shadow="0">
            <root>
                <mxCell id="0"/>
                <mxCell id="1" parent="0"/>
                <object placeholders="1" c4Name="Cook" c4Type="Person" c4Description="Actor responsible for preparing the customer&#39;s order" label="&lt;font style=&quot;color:#ffffff font-size: 16px&quot;&gt;&lt;b&gt;%c4Name%&lt;/b&gt;&lt;/font&gt;&lt;div&gt;&lt;font color=&quot;#ffffff&quot;&gt;[%c4Type%]&lt;/font&gt;&lt;/div&gt;&lt;br&gt;&lt;div&gt;&lt;font style=&quot;font-size: 11px&quot;&gt;&lt;font color=&quot;#aaaaaa&quot;&gt;%c4Description%&lt;/font&gt;&lt;/div&gt;" id="nPujOaxN9WRPZmrNEGdv-1">
                    <mxCell style="html=1;fontSize=11;dashed=0;whiteSpace=wrap;fillColor=#CCCCFF;strokeColor=#06315C;fontColor=#ffffff;shape=mxgraph.c4.person2;align=center;metaEdit=1;points=[[0.5,0,0],[1,0.5,0],[1,0.75,0],[0.75,1,0],[0.5,1,0],[0.25,1,0],[0,0.75,0],[0,0.5,0]];resizable=0;" parent="1" vertex="1">
                        <mxGeometry x="50" y="80" width="200" height="180" as="geometry"/>
                    </mxCell>
                </object>
                <mxCell id="nPujOaxN9WRPZmrNEGdv-9" style="edgeStyle=orthogonalEdgeStyle;html=1;entryX=0;entryY=0.75;entryDx=0;entryDy=0;entryPerimeter=0;" parent="1" target="nPujOaxN9WRPZmrNEGdv-6" edge="1">
                    <mxGeometry relative="1" as="geometry">
                        <mxPoint x="170" y="550" as="sourcePoint"/>
                        <mxPoint x="350" y="360" as="targetPoint"/>
                        <Array as="points">
                            <mxPoint x="340" y="550"/>
                            <mxPoint x="340" y="390"/>
                        </Array>
                    </mxGeometry>
                </mxCell>
                <object placeholders="1" c4Name="Customer" c4Type="Person" c4Description="Actor responsible for initiating the purchasing process" label="&lt;font style=&quot;font-size: 16px&quot;&gt;&lt;b&gt;%c4Name%&lt;/b&gt;&lt;/font&gt;&lt;div&gt;[%c4Type%]&lt;/div&gt;&lt;br&gt;&lt;div&gt;&lt;font style=&quot;font-size: 11px&quot;&gt;&lt;font color=&quot;#cccccc&quot;&gt;%c4Description%&lt;/font&gt;&lt;/div&gt;" id="nPujOaxN9WRPZmrNEGdv-2">
                    <mxCell style="html=1;fontSize=11;dashed=0;whiteSpace=wrap;fillColor=#CCFFFF;strokeColor=#4D4D4D;fontColor=#ffffff;shape=mxgraph.c4.person2;align=center;metaEdit=1;points=[[0.5,0,0],[1,0.5,0],[1,0.75,0],[0.75,1,0],[0.5,1,0],[0.25,1,0],[0,0.75,0],[0,0.5,0]];resizable=0;" parent="1" vertex="1">
                        <mxGeometry x="50" y="480" width="200" height="180" as="geometry"/>
                    </mxCell>
                </object>
                <mxCell id="nPujOaxN9WRPZmrNEGdv-8" style="edgeStyle=orthogonalEdgeStyle;html=1;" parent="1" source="nPujOaxN9WRPZmrNEGdv-5" edge="1">
                    <mxGeometry relative="1" as="geometry">
                        <mxPoint x="430" y="360" as="targetPoint"/>
                    </mxGeometry>
                </mxCell>
                <object placeholders="1" c4Name="Attendant" c4Type="Person" c4Description="Actor responsible for interacting with the customer, providing support for the order" label="&lt;font style=&quot;color:#ffffff font-size: 16px&quot;&gt;&lt;b&gt;%c4Name%&lt;/b&gt;&lt;/font&gt;&lt;div&gt;&lt;font color=&quot;#ffffff&quot;&gt;[%c4Type%]&lt;/font&gt;&lt;/div&gt;&lt;br&gt;&lt;div&gt;&lt;font style=&quot;font-size: 11px&quot;&gt;&lt;font color=&quot;#aaaaaa&quot;&gt;%c4Description%&lt;/font&gt;&lt;/div&gt;" id="nPujOaxN9WRPZmrNEGdv-5">
                    <mxCell style="html=1;fontSize=11;dashed=0;whiteSpace=wrap;fillColor=#FFCCE6;strokeColor=#06315C;fontColor=#ffffff;shape=mxgraph.c4.person2;align=center;metaEdit=1;points=[[0.5,0,0],[1,0.5,0],[1,0.75,0],[0.75,1,0],[0.5,1,0],[0.25,1,0],[0,0.75,0],[0,0.5,0]];resizable=0;" parent="1" vertex="1">
                        <mxGeometry x="50" y="270" width="200" height="180" as="geometry"/>
                    </mxCell>
                </object>
                <object placeholders="1" c4Name="Fast Food System" c4Type="Software System" c4Description="A system for managing orders in a fast-food restaurant" label="&lt;font style=&quot;font-size: 16px&quot;&gt;&lt;b&gt;%c4Name%&lt;/b&gt;&lt;/font&gt;&lt;div&gt;[%c4Type%]&lt;/div&gt;&lt;br&gt;&lt;div&gt;&lt;font style=&quot;font-size: 11px&quot;&gt;&lt;font color=&quot;#cccccc&quot;&gt;%c4Description%&lt;/font&gt;&lt;/div&gt;" id="nPujOaxN9WRPZmrNEGdv-6">
                    <mxCell style="rounded=1;whiteSpace=wrap;html=1;labelBackgroundColor=none;fillColor=#1061B0;fontColor=#ffffff;align=center;arcSize=10;strokeColor=#0D5091;metaEdit=1;resizable=0;points=[[0.25,0,0],[0.5,0,0],[0.75,0,0],[1,0.25,0],[1,0.5,0],[1,0.75,0],[0.75,1,0],[0.5,1,0],[0.25,1,0],[0,0.75,0],[0,0.5,0],[0,0.25,0]];" parent="1" vertex="1">
                        <mxGeometry x="430" y="300" width="240" height="120" as="geometry"/>
                    </mxCell>
                </object>
                <mxCell id="nPujOaxN9WRPZmrNEGdv-7" style="edgeStyle=orthogonalEdgeStyle;html=1;entryX=0;entryY=0.25;entryDx=0;entryDy=0;entryPerimeter=0;" parent="1" source="nPujOaxN9WRPZmrNEGdv-1" target="nPujOaxN9WRPZmrNEGdv-6" edge="1">
                    <mxGeometry relative="1" as="geometry">
                        <mxPoint x="430" y="340" as="targetPoint"/>
                        <Array as="points">
                            <mxPoint x="340" y="170"/>
                            <mxPoint x="340" y="330"/>
                        </Array>
                    </mxGeometry>
                </mxCell>
                <object placeholders="1" c4Name="Fast Food Restaurant" c4Type="SystemScopeBoundary" c4Application="Software System" label="&lt;font style=&quot;font-size: 16px&quot;&gt;&lt;span&gt;&lt;div style=&quot;text-align: left&quot;&gt;%c4Name%&lt;/div&gt;&lt;/span&gt;&lt;/font&gt;&lt;div style=&quot;text-align: left&quot;&gt;[%c4Application%]&lt;/div&gt;" id="MsYp9DHEtyHnk591v_PZ-1">
                    <mxCell style="rounded=1;fontSize=11;whiteSpace=wrap;html=1;dashed=1;arcSize=20;fillColor=none;strokeColor=#666666;fontColor=#333333;labelBackgroundColor=none;align=left;verticalAlign=bottom;labelBorderColor=none;spacingTop=0;spacing=10;dashPattern=8 4;metaEdit=1;rotatable=0;perimeter=rectanglePerimeter;noLabel=0;labelPadding=0;allowArrows=0;connectable=0;expand=0;recursiveResize=0;editable=1;pointerEvents=0;absoluteArcSize=1;points=[[0.25,0,0],[0.5,0,0],[0.75,0,0],[1,0.25,0],[1,0.5,0],[1,0.75,0],[0.75,1,0],[0.5,1,0],[0.25,1,0],[0,0.75,0],[0,0.5,0],[0,0.25,0]];fontStyle=1" parent="1" vertex="1">
                        <mxGeometry x="20" y="60" width="760" height="680" as="geometry"/>
                    </mxCell>
                </object>
            </root>
        </mxGraphModel>
    </diagram>
    <diagram name="C4 Model - L2 Containers" id="9BMz3m53wuuDqXl2LadR">
        <mxGraphModel dx="535" dy="969" grid="0" gridSize="10" guides="0" tooltips="1" connect="1" arrows="1" fold="1" page="1" pageScale="1" pageWidth="827" pageHeight="1169" math="0" shadow="0">
            <root>
                <mxCell id="JdxLsLQFZ3Cv9fUDiNEd-0"/>
                <mxCell id="JdxLsLQFZ3Cv9fUDiNEd-1" parent="JdxLsLQFZ3Cv9fUDiNEd-0"/>
                <object placeholders="1" c4Name="Fast Food Container" c4Type="ContainerScopeBoundary" c4Application="Container" label="&lt;font style=&quot;font-size: 16px&quot;&gt;&lt;b&gt;&lt;div style=&quot;text-align: left&quot;&gt;%c4Name%&lt;/div&gt;&lt;/b&gt;&lt;/font&gt;&lt;div style=&quot;text-align: left&quot;&gt;[%c4Application%]&lt;/div&gt;" id="JdxLsLQFZ3Cv9fUDiNEd-10">
                    <mxCell style="rounded=1;fontSize=11;whiteSpace=wrap;html=1;dashed=1;arcSize=20;fillColor=none;strokeColor=#666666;fontColor=#333333;labelBackgroundColor=none;align=left;verticalAlign=bottom;labelBorderColor=none;spacingTop=0;spacing=10;dashPattern=8 4;metaEdit=1;rotatable=0;perimeter=rectanglePerimeter;noLabel=0;labelPadding=0;allowArrows=0;connectable=0;expand=0;recursiveResize=0;editable=1;pointerEvents=0;absoluteArcSize=1;points=[[0.25,0,0],[0.5,0,0],[0.75,0,0],[1,0.25,0],[1,0.5,0],[1,0.75,0],[0.75,1,0],[0.5,1,0],[0.25,1,0],[0,0.75,0],[0,0.5,0],[0,0.25,0]];" parent="JdxLsLQFZ3Cv9fUDiNEd-1" vertex="1">
                        <mxGeometry x="910" y="260" width="890" height="480" as="geometry"/>
                    </mxCell>
                </object>
                <mxCell id="JdxLsLQFZ3Cv9fUDiNEd-11" style="edgeStyle=none;html=1;" parent="JdxLsLQFZ3Cv9fUDiNEd-1" source="JdxLsLQFZ3Cv9fUDiNEd-13" target="JdxLsLQFZ3Cv9fUDiNEd-14" edge="1">
                    <mxGeometry relative="1" as="geometry">
                        <mxPoint x="1220" y="585" as="targetPoint"/>
                    </mxGeometry>
                </mxCell>
                <mxCell id="JdxLsLQFZ3Cv9fUDiNEd-12" style="edgeStyle=none;html=1;" parent="JdxLsLQFZ3Cv9fUDiNEd-1" source="JdxLsLQFZ3Cv9fUDiNEd-13" target="JdxLsLQFZ3Cv9fUDiNEd-15" edge="1">
                    <mxGeometry relative="1" as="geometry"/>
                </mxCell>
                <object placeholders="1" c4Name="API Application" c4Type="Container" c4Technology="Golang" c4Description="API responsible to manage customers, products, staffs and orders." label="&lt;font style=&quot;font-size: 16px&quot;&gt;&lt;b&gt;%c4Name%&lt;/b&gt;&lt;/font&gt;&lt;div&gt;[%c4Type%: %c4Technology%]&lt;/div&gt;&lt;br&gt;&lt;div&gt;&lt;font style=&quot;font-size: 11px&quot;&gt;&lt;font color=&quot;#E6E6E6&quot;&gt;%c4Description%&lt;/font&gt;&lt;/div&gt;" id="JdxLsLQFZ3Cv9fUDiNEd-13">
                    <mxCell style="rounded=1;whiteSpace=wrap;html=1;fontSize=11;labelBackgroundColor=none;fillColor=#23A2D9;fontColor=#ffffff;align=center;arcSize=10;strokeColor=#0E7DAD;metaEdit=1;resizable=0;points=[[0.25,0,0],[0.5,0,0],[0.75,0,0],[1,0.25,0],[1,0.5,0],[1,0.75,0],[0.75,1,0],[0.5,1,0],[0.25,1,0],[0,0.75,0],[0,0.5,0],[0,0.25,0]];" parent="JdxLsLQFZ3Cv9fUDiNEd-1" vertex="1">
                        <mxGeometry x="1430" y="525" width="240" height="120" as="geometry"/>
                    </mxCell>
                </object>
                <object placeholders="1" c4Name="Database" c4Type="Container" c4Technology="Postgres v17" c4Description="Storage for the Fast Food Restaurant API" label="&lt;font style=&quot;font-size: 16px&quot;&gt;&lt;b&gt;%c4Name%&lt;/b&gt;&lt;/font&gt;&lt;div&gt;[%c4Type%:&amp;nbsp;%c4Technology%]&lt;/div&gt;&lt;br&gt;&lt;div&gt;&lt;font style=&quot;font-size: 11px&quot;&gt;&lt;font color=&quot;#E6E6E6&quot;&gt;%c4Description%&lt;/font&gt;&lt;/div&gt;" id="JdxLsLQFZ3Cv9fUDiNEd-14">
                    <mxCell style="shape=cylinder3;size=15;whiteSpace=wrap;html=1;boundedLbl=1;rounded=0;labelBackgroundColor=none;fillColor=#23A2D9;fontSize=12;fontColor=#ffffff;align=center;strokeColor=#0E7DAD;metaEdit=1;points=[[0.5,0,0],[1,0.25,0],[1,0.5,0],[1,0.75,0],[0.5,1,0],[0,0.75,0],[0,0.5,0],[0,0.25,0]];resizable=0;" parent="JdxLsLQFZ3Cv9fUDiNEd-1" vertex="1">
                        <mxGeometry x="970" y="525" width="240" height="120" as="geometry"/>
                    </mxCell>
                </object>
                <object placeholders="1" c4Name="Mercado Pago" c4Type="Software System" c4Description="It&#39;s a payment processing system.The API supports multiple payment methods, and provides features like fraud prevention, webhook notifications, and real-time transaction monitoring." label="&lt;font style=&quot;font-size: 16px&quot;&gt;&lt;b&gt;%c4Name%&lt;/b&gt;&lt;/font&gt;&lt;div&gt;[%c4Type%]&lt;/div&gt;&lt;br&gt;&lt;div&gt;&lt;font style=&quot;font-size: 11px&quot;&gt;&lt;font color=&quot;#cccccc&quot;&gt;%c4Description%&lt;/font&gt;&lt;/div&gt;" id="JdxLsLQFZ3Cv9fUDiNEd-15">
                    <mxCell style="rounded=1;whiteSpace=wrap;html=1;labelBackgroundColor=none;fillColor=#8C8496;fontColor=#ffffff;align=center;arcSize=10;strokeColor=#736782;metaEdit=1;resizable=0;points=[[0.25,0,0],[0.5,0,0],[0.75,0,0],[1,0.25,0],[1,0.5,0],[1,0.75,0],[0.75,1,0],[0.5,1,0],[0.25,1,0],[0,0.75,0],[0,0.5,0],[0,0.25,0]];" parent="JdxLsLQFZ3Cv9fUDiNEd-1" vertex="1">
                        <mxGeometry x="1880" y="530" width="240" height="120" as="geometry"/>
                    </mxCell>
                </object>
                <object placeholders="1" c4Name="Totem Web Application" c4Type="Container" c4Technology="React" c4Description="Web Application enabling customers to creating new orders." label="&lt;font style=&quot;font-size: 16px&quot;&gt;&lt;b&gt;%c4Name%&lt;/b&gt;&lt;/font&gt;&lt;div&gt;[%c4Type%: %c4Technology%]&lt;/div&gt;&lt;br&gt;&lt;div&gt;&lt;font style=&quot;font-size: 11px&quot;&gt;&lt;font color=&quot;#E6E6E6&quot;&gt;%c4Description%&lt;/font&gt;&lt;/div&gt;" id="JdxLsLQFZ3Cv9fUDiNEd-16">
                    <mxCell style="rounded=1;whiteSpace=wrap;html=1;fontSize=11;labelBackgroundColor=none;fillColor=#23A2D9;fontColor=#ffffff;align=center;arcSize=10;strokeColor=#0E7DAD;metaEdit=1;resizable=0;points=[[0.25,0,0],[0.5,0,0],[0.75,0,0],[1,0.25,0],[1,0.5,0],[1,0.75,0],[0.75,1,0],[0.5,1,0],[0.25,1,0],[0,0.75,0],[0,0.5,0],[0,0.25,0]];" parent="JdxLsLQFZ3Cv9fUDiNEd-1" vertex="1">
                        <mxGeometry x="980" y="290" width="240" height="120" as="geometry"/>
                    </mxCell>
                </object>
                <mxCell id="JdxLsLQFZ3Cv9fUDiNEd-17" style="edgeStyle=none;html=1;" parent="JdxLsLQFZ3Cv9fUDiNEd-1" source="JdxLsLQFZ3Cv9fUDiNEd-18" edge="1">
                    <mxGeometry relative="1" as="geometry">
                        <mxPoint x="1550" y="520" as="targetPoint"/>
                    </mxGeometry>
                </mxCell>
                <object placeholders="1" c4Name="Administrative Web Application" c4Type="Container" c4Technology="React" c4Description="Web Application to staff to manage orders." label="&lt;font style=&quot;font-size: 16px&quot;&gt;&lt;b&gt;%c4Name%&lt;/b&gt;&lt;/font&gt;&lt;div&gt;[%c4Type%: %c4Technology%]&lt;/div&gt;&lt;br&gt;&lt;div&gt;&lt;font style=&quot;font-size: 11px&quot;&gt;&lt;font color=&quot;#E6E6E6&quot;&gt;%c4Description%&lt;/font&gt;&lt;/div&gt;" id="JdxLsLQFZ3Cv9fUDiNEd-18">
                    <mxCell style="rounded=1;whiteSpace=wrap;html=1;fontSize=11;labelBackgroundColor=none;fillColor=#23A2D9;fontColor=#ffffff;align=center;arcSize=10;strokeColor=#0E7DAD;metaEdit=1;resizable=0;points=[[0.25,0,0],[0.5,0,0],[0.75,0,0],[1,0.25,0],[1,0.5,0],[1,0.75,0],[0.75,1,0],[0.5,1,0],[0.25,1,0],[0,0.75,0],[0,0.5,0],[0,0.25,0]];" parent="JdxLsLQFZ3Cv9fUDiNEd-1" vertex="1">
                        <mxGeometry x="1430" y="290" width="240" height="120" as="geometry"/>
                    </mxCell>
                </object>
                <mxCell id="JdxLsLQFZ3Cv9fUDiNEd-19" style="edgeStyle=orthogonalEdgeStyle;html=1;entryX=0.5;entryY=0;entryDx=0;entryDy=0;entryPerimeter=0;exitX=0.5;exitY=1;exitDx=0;exitDy=0;exitPerimeter=0;" parent="JdxLsLQFZ3Cv9fUDiNEd-1" source="JdxLsLQFZ3Cv9fUDiNEd-16" target="JdxLsLQFZ3Cv9fUDiNEd-13" edge="1">
                    <mxGeometry relative="1" as="geometry">
                        <Array as="points">
                            <mxPoint x="1100" y="470"/>
                            <mxPoint x="1550" y="470"/>
                        </Array>
                    </mxGeometry>
                </mxCell>
                <object placeholders="1" c4Name="Customer" c4Type="Person" c4Description="Actor responsible for initiating the purchasing process" label="&lt;font style=&quot;font-size: 16px&quot;&gt;&lt;b&gt;%c4Name%&lt;/b&gt;&lt;/font&gt;&lt;div&gt;[%c4Type%]&lt;/div&gt;&lt;br&gt;&lt;div&gt;&lt;font style=&quot;font-size: 11px&quot;&gt;&lt;font color=&quot;#cccccc&quot;&gt;%c4Description%&lt;/font&gt;&lt;/div&gt;" id="JdxLsLQFZ3Cv9fUDiNEd-20">
                    <mxCell style="html=1;fontSize=11;dashed=0;whiteSpace=wrap;fillColor=#CCFFFF;strokeColor=#4D4D4D;fontColor=#ffffff;shape=mxgraph.c4.person2;align=center;metaEdit=1;points=[[0.5,0,0],[1,0.5,0],[1,0.75,0],[0.75,1,0],[0.5,1,0],[0.25,1,0],[0,0.75,0],[0,0.5,0]];resizable=0;" parent="JdxLsLQFZ3Cv9fUDiNEd-1" vertex="1">
                        <mxGeometry x="1000" y="10" width="200" height="180" as="geometry"/>
                    </mxCell>
                </object>
                <object placeholders="1" c4Name="Attendant" c4Type="Person" c4Description="Actor responsible for interacting with the customer, providing support for the order" label="&lt;font style=&quot;color:#ffffff font-size: 16px&quot;&gt;&lt;b&gt;%c4Name%&lt;/b&gt;&lt;/font&gt;&lt;div&gt;&lt;font color=&quot;#ffffff&quot;&gt;[%c4Type%]&lt;/font&gt;&lt;/div&gt;&lt;br&gt;&lt;div&gt;&lt;font style=&quot;font-size: 11px&quot;&gt;&lt;font color=&quot;#aaaaaa&quot;&gt;%c4Description%&lt;/font&gt;&lt;/div&gt;" id="JdxLsLQFZ3Cv9fUDiNEd-21">
                    <mxCell style="html=1;fontSize=11;dashed=0;whiteSpace=wrap;fillColor=#FFCCE6;strokeColor=#06315C;fontColor=#ffffff;shape=mxgraph.c4.person2;align=center;metaEdit=1;points=[[0.5,0,0],[1,0.5,0],[1,0.75,0],[0.75,1,0],[0.5,1,0],[0.25,1,0],[0,0.75,0],[0,0.5,0]];resizable=0;" parent="JdxLsLQFZ3Cv9fUDiNEd-1" vertex="1">
                        <mxGeometry x="1580" y="20" width="200" height="180" as="geometry"/>
                    </mxCell>
                </object>
                <object placeholders="1" c4Name="Cook" c4Type="Person" c4Description="Actor responsible for preparing the customer&#39;s order" label="&lt;font style=&quot;color:#ffffff font-size: 16px&quot;&gt;&lt;b&gt;%c4Name%&lt;/b&gt;&lt;/font&gt;&lt;div&gt;&lt;font color=&quot;#ffffff&quot;&gt;[%c4Type%]&lt;/font&gt;&lt;/div&gt;&lt;br&gt;&lt;div&gt;&lt;font style=&quot;font-size: 11px&quot;&gt;&lt;font color=&quot;#aaaaaa&quot;&gt;%c4Description%&lt;/font&gt;&lt;/div&gt;" id="JdxLsLQFZ3Cv9fUDiNEd-22">
                    <mxCell style="html=1;fontSize=11;dashed=0;whiteSpace=wrap;fillColor=#CCCCFF;strokeColor=#06315C;fontColor=#ffffff;shape=mxgraph.c4.person2;align=center;metaEdit=1;points=[[0.5,0,0],[1,0.5,0],[1,0.75,0],[0.75,1,0],[0.5,1,0],[0.25,1,0],[0,0.75,0],[0,0.5,0]];resizable=0;" parent="JdxLsLQFZ3Cv9fUDiNEd-1" vertex="1">
                        <mxGeometry x="1330" y="20" width="200" height="180" as="geometry"/>
                    </mxCell>
                </object>
                <mxCell id="JdxLsLQFZ3Cv9fUDiNEd-23" style="edgeStyle=none;html=1;entryX=0.5;entryY=0;entryDx=0;entryDy=0;entryPerimeter=0;" parent="JdxLsLQFZ3Cv9fUDiNEd-1" source="JdxLsLQFZ3Cv9fUDiNEd-20" target="JdxLsLQFZ3Cv9fUDiNEd-16" edge="1">
                    <mxGeometry relative="1" as="geometry"/>
                </mxCell>
                <mxCell id="JdxLsLQFZ3Cv9fUDiNEd-24" style="edgeStyle=orthogonalEdgeStyle;html=1;entryX=0.5;entryY=0;entryDx=0;entryDy=0;entryPerimeter=0;" parent="JdxLsLQFZ3Cv9fUDiNEd-1" source="JdxLsLQFZ3Cv9fUDiNEd-22" target="JdxLsLQFZ3Cv9fUDiNEd-18" edge="1">
                    <mxGeometry relative="1" as="geometry"/>
                </mxCell>
                <mxCell id="JdxLsLQFZ3Cv9fUDiNEd-25" style="edgeStyle=orthogonalEdgeStyle;html=1;entryX=0.5;entryY=0;entryDx=0;entryDy=0;entryPerimeter=0;" parent="JdxLsLQFZ3Cv9fUDiNEd-1" source="JdxLsLQFZ3Cv9fUDiNEd-21" target="JdxLsLQFZ3Cv9fUDiNEd-18" edge="1">
                    <mxGeometry relative="1" as="geometry"/>
                </mxCell>
            </root>
        </mxGraphModel>
    </diagram>
    <diagram name="C4 Model - L3 Components" id="aG4mnLuodMAdnCOPhAQK">
        <mxGraphModel dx="6697" dy="1597" grid="0" gridSize="10" guides="1" tooltips="1" connect="1" arrows="1" fold="1" page="0" pageScale="1" pageWidth="827" pageHeight="1169" math="0" shadow="0">
            <root>
                <mxCell id="AHOczKP4Tpv3Gd1YOSbh-0"/>
                <mxCell id="AHOczKP4Tpv3Gd1YOSbh-1" parent="AHOczKP4Tpv3Gd1YOSbh-0"/>
                <mxCell id="AHOczKP4Tpv3Gd1YOSbh-12" style="edgeStyle=none;html=1;" parent="AHOczKP4Tpv3Gd1YOSbh-1" edge="1">
                    <mxGeometry relative="1" as="geometry">
                        <mxPoint x="1879.9999999999995" y="588.6666666666665" as="targetPoint"/>
                    </mxGeometry>
                </mxCell>
                <mxCell id="AHOczKP4Tpv3Gd1YOSbh-19" style="edgeStyle=orthogonalEdgeStyle;html=1;entryX=0.5;entryY=0;entryDx=0;entryDy=0;entryPerimeter=0;exitX=0.5;exitY=1;exitDx=0;exitDy=0;exitPerimeter=0;" parent="AHOczKP4Tpv3Gd1YOSbh-1" edge="1">
                    <mxGeometry relative="1" as="geometry">
                        <Array as="points">
                            <mxPoint x="1100" y="470"/>
                            <mxPoint x="1550" y="470"/>
                        </Array>
                        <mxPoint x="1549.9999999999995" y="525" as="targetPoint"/>
                    </mxGeometry>
                </mxCell>
                <object placeholders="1" c4Name="Customer" c4Type="Person" c4Description="Actor responsible for initiating the purchasing process" label="&lt;font style=&quot;font-size: 16px&quot;&gt;&lt;b&gt;%c4Name%&lt;/b&gt;&lt;/font&gt;&lt;div&gt;[%c4Type%]&lt;/div&gt;&lt;br&gt;&lt;div&gt;&lt;font style=&quot;font-size: 11px&quot;&gt;&lt;font color=&quot;#cccccc&quot;&gt;%c4Description%&lt;/font&gt;&lt;/div&gt;" id="AHOczKP4Tpv3Gd1YOSbh-20">
                    <mxCell style="html=1;fontSize=11;dashed=0;whiteSpace=wrap;fillColor=#CCFFFF;strokeColor=#4D4D4D;fontColor=#ffffff;shape=mxgraph.c4.person2;align=center;metaEdit=1;points=[[0.5,0,0],[1,0.5,0],[1,0.75,0],[0.75,1,0],[0.5,1,0],[0.25,1,0],[0,0.75,0],[0,0.5,0]];resizable=0;" parent="AHOczKP4Tpv3Gd1YOSbh-1" vertex="1">
                        <mxGeometry x="367" y="114" width="200" height="180" as="geometry"/>
                    </mxCell>
                </object>
                <object placeholders="1" c4Name="Attendant" c4Type="Person" c4Description="Actor responsible for interacting with the customer, providing support for the order" label="&lt;font style=&quot;color:#ffffff font-size: 16px&quot;&gt;&lt;b&gt;%c4Name%&lt;/b&gt;&lt;/font&gt;&lt;div&gt;&lt;font color=&quot;#ffffff&quot;&gt;[%c4Type%]&lt;/font&gt;&lt;/div&gt;&lt;br&gt;&lt;div&gt;&lt;font style=&quot;font-size: 11px&quot;&gt;&lt;font color=&quot;#aaaaaa&quot;&gt;%c4Description%&lt;/font&gt;&lt;/div&gt;" id="AHOczKP4Tpv3Gd1YOSbh-21">
                    <mxCell style="html=1;fontSize=11;dashed=0;whiteSpace=wrap;fillColor=#FFCCE6;strokeColor=#06315C;fontColor=#ffffff;shape=mxgraph.c4.person2;align=center;metaEdit=1;points=[[0.5,0,0],[1,0.5,0],[1,0.75,0],[0.75,1,0],[0.5,1,0],[0.25,1,0],[0,0.75,0],[0,0.5,0]];resizable=0;" parent="AHOczKP4Tpv3Gd1YOSbh-1" vertex="1">
                        <mxGeometry x="1134" y="117" width="200" height="180" as="geometry"/>
                    </mxCell>
                </object>
                <object placeholders="1" c4Name="Cook" c4Type="Person" c4Description="Actor responsible for preparing the customer&#39;s order" label="&lt;font style=&quot;color:#ffffff font-size: 16px&quot;&gt;&lt;b&gt;%c4Name%&lt;/b&gt;&lt;/font&gt;&lt;div&gt;&lt;font color=&quot;#ffffff&quot;&gt;[%c4Type%]&lt;/font&gt;&lt;/div&gt;&lt;br&gt;&lt;div&gt;&lt;font style=&quot;font-size: 11px&quot;&gt;&lt;font color=&quot;#aaaaaa&quot;&gt;%c4Description%&lt;/font&gt;&lt;/div&gt;" id="AHOczKP4Tpv3Gd1YOSbh-22">
                    <mxCell style="html=1;fontSize=11;dashed=0;whiteSpace=wrap;fillColor=#CCCCFF;strokeColor=#06315C;fontColor=#ffffff;shape=mxgraph.c4.person2;align=center;metaEdit=1;points=[[0.5,0,0],[1,0.5,0],[1,0.75,0],[0.75,1,0],[0.5,1,0],[0.25,1,0],[0,0.75,0],[0,0.5,0]];resizable=0;" parent="AHOczKP4Tpv3Gd1YOSbh-1" vertex="1">
                        <mxGeometry x="830" y="120" width="200" height="180" as="geometry"/>
                    </mxCell>
                </object>
                <mxCell id="AHOczKP4Tpv3Gd1YOSbh-23" style="edgeStyle=none;html=1;" parent="AHOczKP4Tpv3Gd1YOSbh-1" source="AHOczKP4Tpv3Gd1YOSbh-20" target="5XONT18Spy3aDExhdSqh-55" edge="1">
                    <mxGeometry relative="1" as="geometry">
                        <mxPoint x="1100" y="290" as="targetPoint"/>
                    </mxGeometry>
                </mxCell>
                <mxCell id="AHOczKP4Tpv3Gd1YOSbh-24" style="edgeStyle=orthogonalEdgeStyle;html=1;entryX=0.5;entryY=0;entryDx=0;entryDy=0;entryPerimeter=0;exitX=0.5;exitY=1;exitDx=0;exitDy=0;exitPerimeter=0;" parent="AHOczKP4Tpv3Gd1YOSbh-1" source="AHOczKP4Tpv3Gd1YOSbh-22" target="5XONT18Spy3aDExhdSqh-56" edge="1">
                    <mxGeometry relative="1" as="geometry">
                        <mxPoint x="1549.9999999999995" y="290" as="targetPoint"/>
                    </mxGeometry>
                </mxCell>
                <mxCell id="AHOczKP4Tpv3Gd1YOSbh-25" style="edgeStyle=orthogonalEdgeStyle;html=1;entryX=0.5;entryY=0;entryDx=0;entryDy=0;entryPerimeter=0;exitX=0.5;exitY=1;exitDx=0;exitDy=0;exitPerimeter=0;" parent="AHOczKP4Tpv3Gd1YOSbh-1" source="AHOczKP4Tpv3Gd1YOSbh-21" target="5XONT18Spy3aDExhdSqh-56" edge="1">
                    <mxGeometry relative="1" as="geometry">
                        <mxPoint x="1549.9999999999995" y="290" as="targetPoint"/>
                    </mxGeometry>
                </mxCell>
                <mxCell id="5XONT18Spy3aDExhdSqh-12" style="edgeStyle=none;html=1;" parent="AHOczKP4Tpv3Gd1YOSbh-1" source="WHdR6jFd35SEse9fPfib-0" target="WHdR6jFd35SEse9fPfib-7" edge="1">
                    <mxGeometry relative="1" as="geometry"/>
                </mxCell>
                <object placeholders="1" c4Name="Customer Handler" c4Type="Component" c4Technology="Golang" c4Description="Responsible to manage customers requests. You can perform creating, updating, list and delete operations." label="&lt;font style=&quot;font-size: 16px&quot;&gt;&lt;b&gt;%c4Name%&lt;/b&gt;&lt;/font&gt;&lt;div&gt;[%c4Type%: %c4Technology%]&lt;/div&gt;&lt;br&gt;&lt;div&gt;&lt;font style=&quot;font-size: 11px&quot;&gt;%c4Description%&lt;/font&gt;&lt;/div&gt;" id="WHdR6jFd35SEse9fPfib-0">
                    <mxCell style="rounded=1;whiteSpace=wrap;html=1;labelBackgroundColor=none;fillColor=#63BEF2;fontColor=#ffffff;align=center;arcSize=6;strokeColor=#2086C9;metaEdit=1;resizable=0;points=[[0.25,0,0],[0.5,0,0],[0.75,0,0],[1,0.25,0],[1,0.5,0],[1,0.75,0],[0.75,1,0],[0.5,1,0],[0.25,1,0],[0,0.75,0],[0,0.5,0],[0,0.25,0]];" parent="AHOczKP4Tpv3Gd1YOSbh-1" vertex="1">
                        <mxGeometry x="1194" y="842" width="240" height="120" as="geometry"/>
                    </mxCell>
                </object>
                <object placeholders="1" c4Name="Fast Food Components" c4Type="ComponentScopeBoundary" c4Application="Components" label="&lt;font style=&quot;font-size: 16px&quot;&gt;&lt;b&gt;&lt;div style=&quot;text-align: left&quot;&gt;%c4Name%&lt;/div&gt;&lt;/b&gt;&lt;/font&gt;&lt;div style=&quot;text-align: left&quot;&gt;[%c4Application%]&lt;/div&gt;" id="WHdR6jFd35SEse9fPfib-1">
                    <mxCell style="rounded=1;fontSize=11;whiteSpace=wrap;html=1;dashed=1;arcSize=20;fillColor=none;strokeColor=#666666;fontColor=#333333;labelBackgroundColor=none;align=left;verticalAlign=bottom;labelBorderColor=none;spacingTop=0;spacing=10;dashPattern=8 4;metaEdit=1;rotatable=0;perimeter=rectanglePerimeter;noLabel=0;labelPadding=0;allowArrows=0;connectable=0;expand=0;recursiveResize=0;editable=1;pointerEvents=0;absoluteArcSize=1;points=[[0.25,0,0],[0.5,0,0],[0.75,0,0],[1,0.25,0],[1,0.5,0],[1,0.75,0],[0.75,1,0],[0.5,1,0],[0.25,1,0],[0,0.75,0],[0,0.5,0],[0,0.25,0]];" parent="AHOczKP4Tpv3Gd1YOSbh-1" vertex="1">
                        <mxGeometry x="-310" y="770" width="2889" height="1080" as="geometry"/>
                    </mxCell>
                </object>
                <object placeholders="1" c4Name="Staff Handler" c4Type="Component" c4Technology="Golang" c4Description="Responsible to manage staffs requests. You can perform creating, updating, list and delete operations." label="&lt;font style=&quot;font-size: 16px&quot;&gt;&lt;b&gt;%c4Name%&lt;/b&gt;&lt;/font&gt;&lt;div&gt;[%c4Type%: %c4Technology%]&lt;/div&gt;&lt;br&gt;&lt;div&gt;&lt;font style=&quot;font-size: 11px&quot;&gt;%c4Description%&lt;/font&gt;&lt;/div&gt;" id="WHdR6jFd35SEse9fPfib-2">
                    <mxCell style="rounded=1;whiteSpace=wrap;html=1;labelBackgroundColor=none;fillColor=#63BEF2;fontColor=#ffffff;align=center;arcSize=6;strokeColor=#2086C9;metaEdit=1;resizable=0;points=[[0.25,0,0],[0.5,0,0],[0.75,0,0],[1,0.25,0],[1,0.5,0],[1,0.75,0],[0.75,1,0],[0.5,1,0],[0.25,1,0],[0,0.75,0],[0,0.5,0],[0,0.25,0]];" parent="AHOczKP4Tpv3Gd1YOSbh-1" vertex="1">
                        <mxGeometry x="1807" y="839" width="240" height="120" as="geometry"/>
                    </mxCell>
                </object>
                <mxCell id="5XONT18Spy3aDExhdSqh-4" value="" style="edgeStyle=none;html=1;" parent="AHOczKP4Tpv3Gd1YOSbh-1" source="WHdR6jFd35SEse9fPfib-3" target="WHdR6jFd35SEse9fPfib-9" edge="1">
                    <mxGeometry relative="1" as="geometry"/>
                </mxCell>
                <object placeholders="1" c4Name="Order Handler" c4Type="Component" c4Technology="Golang" c4Description="Responsible to manage orders requests. You can create orders, transition between status, list order ordered by status (READY, PREPARING, COMPLETED), delete or filter." label="&lt;font style=&quot;font-size: 16px&quot;&gt;&lt;b&gt;%c4Name%&lt;/b&gt;&lt;/font&gt;&lt;div&gt;[%c4Type%: %c4Technology%]&lt;/div&gt;&lt;br&gt;&lt;div&gt;&lt;font style=&quot;font-size: 11px&quot;&gt;%c4Description%&lt;/font&gt;&lt;/div&gt;" id="WHdR6jFd35SEse9fPfib-3">
                    <mxCell style="rounded=1;whiteSpace=wrap;html=1;labelBackgroundColor=none;fillColor=#63BEF2;fontColor=#ffffff;align=center;arcSize=6;strokeColor=#2086C9;metaEdit=1;resizable=0;points=[[0.25,0,0],[0.5,0,0],[0.75,0,0],[1,0.25,0],[1,0.5,0],[1,0.75,0],[0.75,1,0],[0.5,1,0],[0.25,1,0],[0,0.75,0],[0,0.5,0],[0,0.25,0]];" parent="AHOczKP4Tpv3Gd1YOSbh-1" vertex="1">
                        <mxGeometry x="350" y="840" width="240" height="120" as="geometry"/>
                    </mxCell>
                </object>
                <mxCell id="5XONT18Spy3aDExhdSqh-6" style="edgeStyle=none;html=1;" parent="AHOczKP4Tpv3Gd1YOSbh-1" source="WHdR6jFd35SEse9fPfib-4" target="WHdR6jFd35SEse9fPfib-10" edge="1">
                    <mxGeometry relative="1" as="geometry"/>
                </mxCell>
                <object placeholders="1" c4Name="Order History Handler" c4Type="Component" c4Technology="Golang" c4Description="Responsible to manage order histories requests, such as list and get a specific history." label="&lt;font style=&quot;font-size: 16px&quot;&gt;&lt;b&gt;%c4Name%&lt;/b&gt;&lt;/font&gt;&lt;div&gt;[%c4Type%: %c4Technology%]&lt;/div&gt;&lt;br&gt;&lt;div&gt;&lt;font style=&quot;font-size: 11px&quot;&gt;%c4Description%&lt;/font&gt;&lt;/div&gt;" id="WHdR6jFd35SEse9fPfib-4">
                    <mxCell style="rounded=1;whiteSpace=wrap;html=1;labelBackgroundColor=none;fillColor=#63BEF2;fontColor=#ffffff;align=center;arcSize=6;strokeColor=#2086C9;metaEdit=1;resizable=0;points=[[0.25,0,0],[0.5,0,0],[0.75,0,0],[1,0.25,0],[1,0.5,0],[1,0.75,0],[0.75,1,0],[0.5,1,0],[0.25,1,0],[0,0.75,0],[0,0.5,0],[0,0.25,0]];" parent="AHOczKP4Tpv3Gd1YOSbh-1" vertex="1">
                        <mxGeometry x="640" y="840" width="240" height="120" as="geometry"/>
                    </mxCell>
                </object>
                <object placeholders="1" c4Name="Payment Handler" c4Type="Component" c4Technology="Golang" c4Description="Responsible to manage payment requests, including, payment status, filter paymens, checkout and postback." label="&lt;font style=&quot;font-size: 16px&quot;&gt;&lt;b&gt;%c4Name%&lt;/b&gt;&lt;/font&gt;&lt;div&gt;[%c4Type%: %c4Technology%]&lt;/div&gt;&lt;br&gt;&lt;div&gt;&lt;font style=&quot;font-size: 11px&quot;&gt;%c4Description%&lt;/font&gt;&lt;/div&gt;" id="WHdR6jFd35SEse9fPfib-5">
                    <mxCell style="rounded=1;whiteSpace=wrap;html=1;labelBackgroundColor=none;fillColor=#63BEF2;fontColor=#ffffff;align=center;arcSize=6;strokeColor=#2086C9;metaEdit=1;resizable=0;points=[[0.25,0,0],[0.5,0,0],[0.75,0,0],[1,0.25,0],[1,0.5,0],[1,0.75,0],[0.75,1,0],[0.5,1,0],[0.25,1,0],[0,0.75,0],[0,0.5,0],[0,0.25,0]];" parent="AHOczKP4Tpv3Gd1YOSbh-1" vertex="1">
                        <mxGeometry x="60" y="840" width="240" height="120" as="geometry"/>
                    </mxCell>
                </object>
                <object placeholders="1" c4Name="Product Handler" c4Type="Component" c4Technology="Golang" c4Description="Responsible to receive product requests. You can perform creating, updating, list and delete operations." label="&lt;font style=&quot;font-size: 16px&quot;&gt;&lt;b&gt;%c4Name%&lt;/b&gt;&lt;/font&gt;&lt;div&gt;[%c4Type%: %c4Technology%]&lt;/div&gt;&lt;br&gt;&lt;div&gt;&lt;font style=&quot;font-size: 11px&quot;&gt;%c4Description%&lt;/font&gt;&lt;/div&gt;" id="WHdR6jFd35SEse9fPfib-6">
                    <mxCell style="rounded=1;whiteSpace=wrap;html=1;labelBackgroundColor=none;fillColor=#63BEF2;fontColor=#ffffff;align=center;arcSize=6;strokeColor=#2086C9;metaEdit=1;resizable=0;points=[[0.25,0,0],[0.5,0,0],[0.75,0,0],[1,0.25,0],[1,0.5,0],[1,0.75,0],[0.75,1,0],[0.5,1,0],[0.25,1,0],[0,0.75,0],[0,0.5,0],[0,0.25,0]];" parent="AHOczKP4Tpv3Gd1YOSbh-1" vertex="1">
                        <mxGeometry x="2098" y="843" width="240" height="120" as="geometry"/>
                    </mxCell>
                </object>
                <object placeholders="1" c4Name="Customer Controller" c4Type="Component" c4Technology="Golang" c4Description="Entrypoint of customers use cases." label="&lt;font style=&quot;font-size: 16px&quot;&gt;&lt;b&gt;%c4Name%&lt;/b&gt;&lt;/font&gt;&lt;div&gt;[%c4Type%: %c4Technology%]&lt;/div&gt;&lt;br&gt;&lt;div&gt;&lt;font style=&quot;font-size: 11px&quot;&gt;%c4Description%&lt;/font&gt;&lt;/div&gt;" id="WHdR6jFd35SEse9fPfib-7">
                    <mxCell style="rounded=1;whiteSpace=wrap;html=1;labelBackgroundColor=none;fillColor=#63BEF2;fontColor=#ffffff;align=center;arcSize=6;strokeColor=#2086C9;metaEdit=1;resizable=0;points=[[0.25,0,0],[0.5,0,0],[0.75,0,0],[1,0.25,0],[1,0.5,0],[1,0.75,0],[0.75,1,0],[0.5,1,0],[0.25,1,0],[0,0.75,0],[0,0.5,0],[0,0.25,0]];" parent="AHOczKP4Tpv3Gd1YOSbh-1" vertex="1">
                        <mxGeometry x="1194" y="1032" width="240" height="120" as="geometry"/>
                    </mxCell>
                </object>
                <mxCell id="5XONT18Spy3aDExhdSqh-11" style="edgeStyle=none;html=1;" parent="AHOczKP4Tpv3Gd1YOSbh-1" source="WHdR6jFd35SEse9fPfib-8" target="WHdR6jFd35SEse9fPfib-14" edge="1">
                    <mxGeometry relative="1" as="geometry"/>
                </mxCell>
                <object placeholders="1" c4Name="Staff Controller" c4Type="Component" c4Technology="Golang" c4Description="Entrypoint of staffs use cases." label="&lt;font style=&quot;font-size: 16px&quot;&gt;&lt;b&gt;%c4Name%&lt;/b&gt;&lt;/font&gt;&lt;div&gt;[%c4Type%: %c4Technology%]&lt;/div&gt;&lt;br&gt;&lt;div&gt;&lt;font style=&quot;font-size: 11px&quot;&gt;%c4Description%&lt;/font&gt;&lt;/div&gt;" id="WHdR6jFd35SEse9fPfib-8">
                    <mxCell style="rounded=1;whiteSpace=wrap;html=1;labelBackgroundColor=none;fillColor=#63BEF2;fontColor=#ffffff;align=center;arcSize=6;strokeColor=#2086C9;metaEdit=1;resizable=0;points=[[0.25,0,0],[0.5,0,0],[0.75,0,0],[1,0.25,0],[1,0.5,0],[1,0.75,0],[0.75,1,0],[0.5,1,0],[0.25,1,0],[0,0.75,0],[0,0.5,0],[0,0.25,0]];" parent="AHOczKP4Tpv3Gd1YOSbh-1" vertex="1">
                        <mxGeometry x="1807" y="1029" width="240" height="120" as="geometry"/>
                    </mxCell>
                </object>
                <object placeholders="1" c4Name="Order Controller" c4Type="Component" c4Technology="Golang" c4Description="Entrypoint of orders use cases." label="&lt;font style=&quot;font-size: 16px&quot;&gt;&lt;b&gt;%c4Name%&lt;/b&gt;&lt;/font&gt;&lt;div&gt;[%c4Type%: %c4Technology%]&lt;/div&gt;&lt;br&gt;&lt;div&gt;&lt;font style=&quot;font-size: 11px&quot;&gt;%c4Description%&lt;/font&gt;&lt;/div&gt;" id="WHdR6jFd35SEse9fPfib-9">
                    <mxCell style="rounded=1;whiteSpace=wrap;html=1;labelBackgroundColor=none;fillColor=#63BEF2;fontColor=#ffffff;align=center;arcSize=6;strokeColor=#2086C9;metaEdit=1;resizable=0;points=[[0.25,0,0],[0.5,0,0],[0.75,0,0],[1,0.25,0],[1,0.5,0],[1,0.75,0],[0.75,1,0],[0.5,1,0],[0.25,1,0],[0,0.75,0],[0,0.5,0],[0,0.25,0]];" parent="AHOczKP4Tpv3Gd1YOSbh-1" vertex="1">
                        <mxGeometry x="350" y="1030" width="240" height="120" as="geometry"/>
                    </mxCell>
                </object>
                <object placeholders="1" c4Name="Order History Controller" c4Type="Component" c4Technology="Golang" c4Description="Entrypoint of order histories use cases." label="&lt;font style=&quot;font-size: 16px&quot;&gt;&lt;b&gt;%c4Name%&lt;/b&gt;&lt;/font&gt;&lt;div&gt;[%c4Type%: %c4Technology%]&lt;/div&gt;&lt;br&gt;&lt;div&gt;&lt;font style=&quot;font-size: 11px&quot;&gt;%c4Description%&lt;/font&gt;&lt;/div&gt;" id="WHdR6jFd35SEse9fPfib-10">
                    <mxCell style="rounded=1;whiteSpace=wrap;html=1;labelBackgroundColor=none;fillColor=#63BEF2;fontColor=#ffffff;align=center;arcSize=6;strokeColor=#2086C9;metaEdit=1;resizable=0;points=[[0.25,0,0],[0.5,0,0],[0.75,0,0],[1,0.25,0],[1,0.5,0],[1,0.75,0],[0.75,1,0],[0.5,1,0],[0.25,1,0],[0,0.75,0],[0,0.5,0],[0,0.25,0]];" parent="AHOczKP4Tpv3Gd1YOSbh-1" vertex="1">
                        <mxGeometry x="640" y="1030" width="240" height="120" as="geometry"/>
                    </mxCell>
                </object>
                <object placeholders="1" c4Name="Payment Controller" c4Type="Component" c4Technology="Golang" c4Description="Entrypoint of payment use cases. " label="&lt;font style=&quot;font-size: 16px&quot;&gt;&lt;b&gt;%c4Name%&lt;/b&gt;&lt;/font&gt;&lt;div&gt;[%c4Type%: %c4Technology%]&lt;/div&gt;&lt;br&gt;&lt;div&gt;&lt;font style=&quot;font-size: 11px&quot;&gt;%c4Description%&lt;/font&gt;&lt;/div&gt;" id="WHdR6jFd35SEse9fPfib-11">
                    <mxCell style="rounded=1;whiteSpace=wrap;html=1;labelBackgroundColor=none;fillColor=#63BEF2;fontColor=#ffffff;align=center;arcSize=6;strokeColor=#2086C9;metaEdit=1;resizable=0;points=[[0.25,0,0],[0.5,0,0],[0.75,0,0],[1,0.25,0],[1,0.5,0],[1,0.75,0],[0.75,1,0],[0.5,1,0],[0.25,1,0],[0,0.75,0],[0,0.5,0],[0,0.25,0]];" parent="AHOczKP4Tpv3Gd1YOSbh-1" vertex="1">
                        <mxGeometry x="60" y="1030" width="240" height="120" as="geometry"/>
                    </mxCell>
                </object>
                <object placeholders="1" c4Name="Product Controller" c4Type="Component" c4Technology="Golang" c4Description="Entrypoint of product use cases." label="&lt;font style=&quot;font-size: 16px&quot;&gt;&lt;b&gt;%c4Name%&lt;/b&gt;&lt;/font&gt;&lt;div&gt;[%c4Type%: %c4Technology%]&lt;/div&gt;&lt;br&gt;&lt;div&gt;&lt;font style=&quot;font-size: 11px&quot;&gt;%c4Description%&lt;/font&gt;&lt;/div&gt;" id="WHdR6jFd35SEse9fPfib-12">
                    <mxCell style="rounded=1;whiteSpace=wrap;html=1;labelBackgroundColor=none;fillColor=#63BEF2;fontColor=#ffffff;align=center;arcSize=6;strokeColor=#2086C9;metaEdit=1;resizable=0;points=[[0.25,0,0],[0.5,0,0],[0.75,0,0],[1,0.25,0],[1,0.5,0],[1,0.75,0],[0.75,1,0],[0.5,1,0],[0.25,1,0],[0,0.75,0],[0,0.5,0],[0,0.25,0]];" parent="AHOczKP4Tpv3Gd1YOSbh-1" vertex="1">
                        <mxGeometry x="2098" y="1033" width="240" height="120" as="geometry"/>
                    </mxCell>
                </object>
                <object placeholders="1" c4Name="Customer Controller" c4Type="Component" c4Technology="Golang" c4Description="Responsible to manage customers." label="&lt;font style=&quot;font-size: 16px&quot;&gt;&lt;b&gt;%c4Name%&lt;/b&gt;&lt;/font&gt;&lt;div&gt;[%c4Type%: %c4Technology%]&lt;/div&gt;&lt;br&gt;&lt;div&gt;&lt;font style=&quot;font-size: 11px&quot;&gt;%c4Description%&lt;/font&gt;&lt;/div&gt;" id="WHdR6jFd35SEse9fPfib-13">
                    <mxCell style="rounded=1;whiteSpace=wrap;html=1;labelBackgroundColor=none;fillColor=#63BEF2;fontColor=#ffffff;align=center;arcSize=6;strokeColor=#2086C9;metaEdit=1;resizable=0;points=[[0.25,0,0],[0.5,0,0],[0.75,0,0],[1,0.25,0],[1,0.5,0],[1,0.75,0],[0.75,1,0],[0.5,1,0],[0.25,1,0],[0,0.75,0],[0,0.5,0],[0,0.25,0]];" parent="AHOczKP4Tpv3Gd1YOSbh-1" vertex="1">
                        <mxGeometry x="1194" y="1222" width="240" height="120" as="geometry"/>
                    </mxCell>
                </object>
                <mxCell id="5XONT18Spy3aDExhdSqh-26" value="" style="edgeStyle=none;html=1;" parent="AHOczKP4Tpv3Gd1YOSbh-1" source="WHdR6jFd35SEse9fPfib-14" target="5XONT18Spy3aDExhdSqh-15" edge="1">
                    <mxGeometry relative="1" as="geometry"/>
                </mxCell>
                <object placeholders="1" c4Name="Staff UseCases" c4Type="Component" c4Technology="Golang" c4Description="Responsible to manage staffs." label="&lt;font style=&quot;font-size: 16px&quot;&gt;&lt;b&gt;%c4Name%&lt;/b&gt;&lt;/font&gt;&lt;div&gt;[%c4Type%: %c4Technology%]&lt;/div&gt;&lt;br&gt;&lt;div&gt;&lt;font style=&quot;font-size: 11px&quot;&gt;%c4Description%&lt;/font&gt;&lt;/div&gt;" id="WHdR6jFd35SEse9fPfib-14">
                    <mxCell style="rounded=1;whiteSpace=wrap;html=1;labelBackgroundColor=none;fillColor=#63BEF2;fontColor=#ffffff;align=center;arcSize=6;strokeColor=#2086C9;metaEdit=1;resizable=0;points=[[0.25,0,0],[0.5,0,0],[0.75,0,0],[1,0.25,0],[1,0.5,0],[1,0.75,0],[0.75,1,0],[0.5,1,0],[0.25,1,0],[0,0.75,0],[0,0.5,0],[0,0.25,0]];" parent="AHOczKP4Tpv3Gd1YOSbh-1" vertex="1">
                        <mxGeometry x="1807" y="1219" width="240" height="120" as="geometry"/>
                    </mxCell>
                </object>
                <mxCell id="5XONT18Spy3aDExhdSqh-23" style="edgeStyle=none;html=1;" parent="AHOczKP4Tpv3Gd1YOSbh-1" source="WHdR6jFd35SEse9fPfib-15" target="5XONT18Spy3aDExhdSqh-16" edge="1">
                    <mxGeometry relative="1" as="geometry"/>
                </mxCell>
                <object placeholders="1" c4Name="Order UseCases" c4Type="Component" c4Technology="Golang" c4Description="Core of order management. It&#39;s possible to create a new order, transition between status (updating a order), deleting or filter. " label="&lt;font style=&quot;font-size: 16px&quot;&gt;&lt;b&gt;%c4Name%&lt;/b&gt;&lt;/font&gt;&lt;div&gt;[%c4Type%: %c4Technology%]&lt;/div&gt;&lt;br&gt;&lt;div&gt;&lt;font style=&quot;font-size: 11px&quot;&gt;%c4Description%&lt;/font&gt;&lt;/div&gt;" id="WHdR6jFd35SEse9fPfib-15">
                    <mxCell style="rounded=1;whiteSpace=wrap;html=1;labelBackgroundColor=none;fillColor=#63BEF2;fontColor=#ffffff;align=center;arcSize=6;strokeColor=#2086C9;metaEdit=1;resizable=0;points=[[0.25,0,0],[0.5,0,0],[0.75,0,0],[1,0.25,0],[1,0.5,0],[1,0.75,0],[0.75,1,0],[0.5,1,0],[0.25,1,0],[0,0.75,0],[0,0.5,0],[0,0.25,0]];" parent="AHOczKP4Tpv3Gd1YOSbh-1" vertex="1">
                        <mxGeometry x="350" y="1220" width="240" height="120" as="geometry"/>
                    </mxCell>
                </object>
                <object placeholders="1" c4Name="Order History UseCases" c4Type="Component" c4Technology="Golang" c4Description="Responsible to manage order histories." label="&lt;font style=&quot;font-size: 16px&quot;&gt;&lt;b&gt;%c4Name%&lt;/b&gt;&lt;/font&gt;&lt;div&gt;[%c4Type%: %c4Technology%]&lt;/div&gt;&lt;br&gt;&lt;div&gt;&lt;font style=&quot;font-size: 11px&quot;&gt;%c4Description%&lt;/font&gt;&lt;/div&gt;" id="WHdR6jFd35SEse9fPfib-16">
                    <mxCell style="rounded=1;whiteSpace=wrap;html=1;labelBackgroundColor=none;fillColor=#63BEF2;fontColor=#ffffff;align=center;arcSize=6;strokeColor=#2086C9;metaEdit=1;resizable=0;points=[[0.25,0,0],[0.5,0,0],[0.75,0,0],[1,0.25,0],[1,0.5,0],[1,0.75,0],[0.75,1,0],[0.5,1,0],[0.25,1,0],[0,0.75,0],[0,0.5,0],[0,0.25,0]];" parent="AHOczKP4Tpv3Gd1YOSbh-1" vertex="1">
                        <mxGeometry x="640" y="1220" width="240" height="120" as="geometry"/>
                    </mxCell>
                </object>
                <object placeholders="1" c4Name="Payment UseCases" c4Type="Component" c4Technology="Golang" c4Description="Core of payment management. You can create a new payment by providing an order and receive a postback from an external payment system confirming or denying the transaction." label="&lt;font style=&quot;font-size: 16px&quot;&gt;&lt;b&gt;%c4Name%&lt;/b&gt;&lt;/font&gt;&lt;div&gt;[%c4Type%: %c4Technology%]&lt;/div&gt;&lt;br&gt;&lt;div&gt;&lt;font style=&quot;font-size: 11px&quot;&gt;%c4Description%&lt;/font&gt;&lt;/div&gt;" id="WHdR6jFd35SEse9fPfib-17">
                    <mxCell style="rounded=1;whiteSpace=wrap;html=1;labelBackgroundColor=none;fillColor=#63BEF2;fontColor=#ffffff;align=center;arcSize=6;strokeColor=#2086C9;metaEdit=1;resizable=0;points=[[0.25,0,0],[0.5,0,0],[0.75,0,0],[1,0.25,0],[1,0.5,0],[1,0.75,0],[0.75,1,0],[0.5,1,0],[0.25,1,0],[0,0.75,0],[0,0.5,0],[0,0.25,0]];" parent="AHOczKP4Tpv3Gd1YOSbh-1" vertex="1">
                        <mxGeometry x="60" y="1220" width="240" height="120" as="geometry"/>
                    </mxCell>
                </object>
                <object placeholders="1" c4Name="Product UseCases" c4Type="Component" c4Technology="Golang" c4Description="Responsible to manage product." label="&lt;font style=&quot;font-size: 16px&quot;&gt;&lt;b&gt;%c4Name%&lt;/b&gt;&lt;/font&gt;&lt;div&gt;[%c4Type%: %c4Technology%]&lt;/div&gt;&lt;br&gt;&lt;div&gt;&lt;font style=&quot;font-size: 11px&quot;&gt;%c4Description%&lt;/font&gt;&lt;/div&gt;" id="WHdR6jFd35SEse9fPfib-18">
                    <mxCell style="rounded=1;whiteSpace=wrap;html=1;labelBackgroundColor=none;fillColor=#63BEF2;fontColor=#ffffff;align=center;arcSize=6;strokeColor=#2086C9;metaEdit=1;resizable=0;points=[[0.25,0,0],[0.5,0,0],[0.75,0,0],[1,0.25,0],[1,0.5,0],[1,0.75,0],[0.75,1,0],[0.5,1,0],[0.25,1,0],[0,0.75,0],[0,0.5,0],[0,0.25,0]];" parent="AHOczKP4Tpv3Gd1YOSbh-1" vertex="1">
                        <mxGeometry x="2098" y="1223" width="240" height="120" as="geometry"/>
                    </mxCell>
                </object>
                <object placeholders="1" c4Type="Relationship" c4Description="uses" label="&lt;div style=&quot;text-align: left&quot;&gt;&lt;div style=&quot;text-align: center&quot;&gt;&lt;b&gt;%c4Description%&lt;/b&gt;&lt;/div&gt;" id="WHdR6jFd35SEse9fPfib-20">
                    <mxCell style="endArrow=blockThin;html=1;fontSize=10;fontColor=#404040;strokeWidth=1;endFill=1;strokeColor=#828282;elbow=vertical;metaEdit=1;endSize=14;startSize=14;jumpStyle=arc;jumpSize=16;rounded=0;edgeStyle=orthogonalEdgeStyle;entryX=0;entryY=0.5;entryDx=0;entryDy=0;entryPerimeter=0;exitX=1;exitY=0.5;exitDx=0;exitDy=0;exitPerimeter=0;" parent="AHOczKP4Tpv3Gd1YOSbh-1" source="WHdR6jFd35SEse9fPfib-15" target="WHdR6jFd35SEse9fPfib-16" edge="1">
                        <mxGeometry x="-0.2" y="-10" width="240" relative="1" as="geometry">
                            <mxPoint x="1010" y="1360" as="sourcePoint"/>
                            <mxPoint x="1060" y="1670" as="targetPoint"/>
                            <mxPoint as="offset"/>
                        </mxGeometry>
                    </mxCell>
                </object>
                <object placeholders="1" c4Type="Relationship" c4Description="uses" label="&lt;div style=&quot;text-align: left&quot;&gt;&lt;div style=&quot;text-align: center&quot;&gt;&lt;b&gt;%c4Description%&lt;/b&gt;&lt;/div&gt;" id="5XONT18Spy3aDExhdSqh-1">
                    <mxCell style="endArrow=blockThin;html=1;fontSize=10;fontColor=#404040;strokeWidth=1;endFill=1;strokeColor=#828282;elbow=vertical;metaEdit=1;endSize=14;startSize=14;jumpStyle=arc;jumpSize=16;rounded=0;edgeStyle=orthogonalEdgeStyle;exitX=1;exitY=0.5;exitDx=0;exitDy=0;exitPerimeter=0;" parent="AHOczKP4Tpv3Gd1YOSbh-1" source="WHdR6jFd35SEse9fPfib-17" edge="1">
                        <mxGeometry x="-0.2" y="-10" width="240" relative="1" as="geometry">
                            <mxPoint x="610" y="1300" as="sourcePoint"/>
                            <mxPoint x="350" y="1280" as="targetPoint"/>
                            <mxPoint as="offset"/>
                        </mxGeometry>
                    </mxCell>
                </object>
                <mxCell id="5XONT18Spy3aDExhdSqh-2" style="edgeStyle=none;html=1;exitX=0.5;exitY=1;exitDx=0;exitDy=0;exitPerimeter=0;entryX=0.5;entryY=0;entryDx=0;entryDy=0;entryPerimeter=0;" parent="AHOczKP4Tpv3Gd1YOSbh-1" source="WHdR6jFd35SEse9fPfib-5" target="WHdR6jFd35SEse9fPfib-11" edge="1">
                    <mxGeometry relative="1" as="geometry"/>
                </mxCell>
                <mxCell id="5XONT18Spy3aDExhdSqh-3" style="edgeStyle=none;html=1;exitX=0.5;exitY=1;exitDx=0;exitDy=0;exitPerimeter=0;entryX=0.5;entryY=0;entryDx=0;entryDy=0;entryPerimeter=0;" parent="AHOczKP4Tpv3Gd1YOSbh-1" source="WHdR6jFd35SEse9fPfib-11" target="WHdR6jFd35SEse9fPfib-17" edge="1">
                    <mxGeometry relative="1" as="geometry"/>
                </mxCell>
                <mxCell id="5XONT18Spy3aDExhdSqh-5" style="edgeStyle=none;html=1;entryX=0.5;entryY=0;entryDx=0;entryDy=0;entryPerimeter=0;" parent="AHOczKP4Tpv3Gd1YOSbh-1" source="WHdR6jFd35SEse9fPfib-9" target="WHdR6jFd35SEse9fPfib-15" edge="1">
                    <mxGeometry relative="1" as="geometry"/>
                </mxCell>
                <mxCell id="5XONT18Spy3aDExhdSqh-7" style="edgeStyle=none;html=1;entryX=0.5;entryY=0;entryDx=0;entryDy=0;entryPerimeter=0;" parent="AHOczKP4Tpv3Gd1YOSbh-1" source="WHdR6jFd35SEse9fPfib-10" target="WHdR6jFd35SEse9fPfib-16" edge="1">
                    <mxGeometry relative="1" as="geometry"/>
                </mxCell>
                <mxCell id="5XONT18Spy3aDExhdSqh-8" style="edgeStyle=none;html=1;entryX=0.5;entryY=0;entryDx=0;entryDy=0;entryPerimeter=0;" parent="AHOczKP4Tpv3Gd1YOSbh-1" source="WHdR6jFd35SEse9fPfib-6" target="WHdR6jFd35SEse9fPfib-12" edge="1">
                    <mxGeometry relative="1" as="geometry"/>
                </mxCell>
                <mxCell id="5XONT18Spy3aDExhdSqh-9" style="edgeStyle=none;html=1;entryX=0.5;entryY=0;entryDx=0;entryDy=0;entryPerimeter=0;" parent="AHOczKP4Tpv3Gd1YOSbh-1" source="WHdR6jFd35SEse9fPfib-12" target="WHdR6jFd35SEse9fPfib-18" edge="1">
                    <mxGeometry relative="1" as="geometry"/>
                </mxCell>
                <mxCell id="5XONT18Spy3aDExhdSqh-10" style="edgeStyle=none;html=1;entryX=0.5;entryY=0;entryDx=0;entryDy=0;entryPerimeter=0;" parent="AHOczKP4Tpv3Gd1YOSbh-1" source="WHdR6jFd35SEse9fPfib-2" target="WHdR6jFd35SEse9fPfib-8" edge="1">
                    <mxGeometry relative="1" as="geometry"/>
                </mxCell>
                <mxCell id="5XONT18Spy3aDExhdSqh-13" style="edgeStyle=none;html=1;entryX=0.5;entryY=0;entryDx=0;entryDy=0;entryPerimeter=0;" parent="AHOczKP4Tpv3Gd1YOSbh-1" source="WHdR6jFd35SEse9fPfib-7" target="WHdR6jFd35SEse9fPfib-13" edge="1">
                    <mxGeometry relative="1" as="geometry"/>
                </mxCell>
                <mxCell id="5XONT18Spy3aDExhdSqh-41" style="edgeStyle=orthogonalEdgeStyle;html=1;" parent="AHOczKP4Tpv3Gd1YOSbh-1" source="5XONT18Spy3aDExhdSqh-14" target="5XONT18Spy3aDExhdSqh-28" edge="1">
                    <mxGeometry relative="1" as="geometry"/>
                </mxCell>
                <object placeholders="1" c4Name="Customer Gateway" c4Type="Component" c4Technology="Golang" c4Description="Customer Gateway Data Provider" label="&lt;font style=&quot;font-size: 16px&quot;&gt;&lt;b&gt;%c4Name%&lt;/b&gt;&lt;/font&gt;&lt;div&gt;[%c4Type%: %c4Technology%]&lt;/div&gt;&lt;br&gt;&lt;div&gt;&lt;font style=&quot;font-size: 11px&quot;&gt;%c4Description%&lt;/font&gt;&lt;/div&gt;" id="5XONT18Spy3aDExhdSqh-14">
                    <mxCell style="rounded=1;whiteSpace=wrap;html=1;labelBackgroundColor=none;fillColor=#63BEF2;fontColor=#ffffff;align=center;arcSize=6;strokeColor=#2086C9;metaEdit=1;resizable=0;points=[[0.25,0,0],[0.5,0,0],[0.75,0,0],[1,0.25,0],[1,0.5,0],[1,0.75,0],[0.75,1,0],[0.5,1,0],[0.25,1,0],[0,0.75,0],[0,0.5,0],[0,0.25,0]];" parent="AHOczKP4Tpv3Gd1YOSbh-1" vertex="1">
                        <mxGeometry x="1194" y="1422" width="240" height="120" as="geometry"/>
                    </mxCell>
                </object>
                <object placeholders="1" c4Name="Staff Gateway" c4Type="Component" c4Technology="Golang" c4Description="Staff Gateway Data Provider" label="&lt;font style=&quot;font-size: 16px&quot;&gt;&lt;b&gt;%c4Name%&lt;/b&gt;&lt;/font&gt;&lt;div&gt;[%c4Type%: %c4Technology%]&lt;/div&gt;&lt;br&gt;&lt;div&gt;&lt;font style=&quot;font-size: 11px&quot;&gt;%c4Description%&lt;/font&gt;&lt;/div&gt;" id="5XONT18Spy3aDExhdSqh-15">
                    <mxCell style="rounded=1;whiteSpace=wrap;html=1;labelBackgroundColor=none;fillColor=#63BEF2;fontColor=#ffffff;align=center;arcSize=6;strokeColor=#2086C9;metaEdit=1;resizable=0;points=[[0.25,0,0],[0.5,0,0],[0.75,0,0],[1,0.25,0],[1,0.5,0],[1,0.75,0],[0.75,1,0],[0.5,1,0],[0.25,1,0],[0,0.75,0],[0,0.5,0],[0,0.25,0]];" parent="AHOczKP4Tpv3Gd1YOSbh-1" vertex="1">
                        <mxGeometry x="1807" y="1419" width="240" height="120" as="geometry"/>
                    </mxCell>
                </object>
                <mxCell id="5XONT18Spy3aDExhdSqh-37" style="edgeStyle=orthogonalEdgeStyle;html=1;" parent="AHOczKP4Tpv3Gd1YOSbh-1" source="5XONT18Spy3aDExhdSqh-16" target="5XONT18Spy3aDExhdSqh-30" edge="1">
                    <mxGeometry relative="1" as="geometry"/>
                </mxCell>
                <object placeholders="1" c4Name="Order Gateway" c4Type="Component" c4Technology="Golang" c4Description="Order Gateway Data Provider" label="&lt;font style=&quot;font-size: 16px&quot;&gt;&lt;b&gt;%c4Name%&lt;/b&gt;&lt;/font&gt;&lt;div&gt;[%c4Type%: %c4Technology%]&lt;/div&gt;&lt;br&gt;&lt;div&gt;&lt;font style=&quot;font-size: 11px&quot;&gt;%c4Description%&lt;/font&gt;&lt;/div&gt;" id="5XONT18Spy3aDExhdSqh-16">
                    <mxCell style="rounded=1;whiteSpace=wrap;html=1;labelBackgroundColor=none;fillColor=#63BEF2;fontColor=#ffffff;align=center;arcSize=6;strokeColor=#2086C9;metaEdit=1;resizable=0;points=[[0.25,0,0],[0.5,0,0],[0.75,0,0],[1,0.25,0],[1,0.5,0],[1,0.75,0],[0.75,1,0],[0.5,1,0],[0.25,1,0],[0,0.75,0],[0,0.5,0],[0,0.25,0]];" parent="AHOczKP4Tpv3Gd1YOSbh-1" vertex="1">
                        <mxGeometry x="350" y="1420" width="240" height="120" as="geometry"/>
                    </mxCell>
                </object>
                <object placeholders="1" c4Name="Order History Gateway" c4Type="Component" c4Technology="Golang" c4Description="Order History Data Provider" label="&lt;font style=&quot;font-size: 16px&quot;&gt;&lt;b&gt;%c4Name%&lt;/b&gt;&lt;/font&gt;&lt;div&gt;[%c4Type%: %c4Technology%]&lt;/div&gt;&lt;br&gt;&lt;div&gt;&lt;font style=&quot;font-size: 11px&quot;&gt;%c4Description%&lt;/font&gt;&lt;/div&gt;" id="5XONT18Spy3aDExhdSqh-17">
                    <mxCell style="rounded=1;whiteSpace=wrap;html=1;labelBackgroundColor=none;fillColor=#63BEF2;fontColor=#ffffff;align=center;arcSize=6;strokeColor=#2086C9;metaEdit=1;resizable=0;points=[[0.25,0,0],[0.5,0,0],[0.75,0,0],[1,0.25,0],[1,0.5,0],[1,0.75,0],[0.75,1,0],[0.5,1,0],[0.25,1,0],[0,0.75,0],[0,0.5,0],[0,0.25,0]];" parent="AHOczKP4Tpv3Gd1YOSbh-1" vertex="1">
                        <mxGeometry x="640" y="1420" width="240" height="120" as="geometry"/>
                    </mxCell>
                </object>
                <object placeholders="1" c4Name="Payment Gateway" c4Type="Component" c4Technology="Golang" c4Description="Payment Gateway Data Provider" label="&lt;font style=&quot;font-size: 16px&quot;&gt;&lt;b&gt;%c4Name%&lt;/b&gt;&lt;/font&gt;&lt;div&gt;[%c4Type%: %c4Technology%]&lt;/div&gt;&lt;br&gt;&lt;div&gt;&lt;font style=&quot;font-size: 11px&quot;&gt;%c4Description%&lt;/font&gt;&lt;/div&gt;" id="5XONT18Spy3aDExhdSqh-18">
                    <mxCell style="rounded=1;whiteSpace=wrap;html=1;labelBackgroundColor=none;fillColor=#63BEF2;fontColor=#ffffff;align=center;arcSize=6;strokeColor=#2086C9;metaEdit=1;resizable=0;points=[[0.25,0,0],[0.5,0,0],[0.75,0,0],[1,0.25,0],[1,0.5,0],[1,0.75,0],[0.75,1,0],[0.5,1,0],[0.25,1,0],[0,0.75,0],[0,0.5,0],[0,0.25,0]];" parent="AHOczKP4Tpv3Gd1YOSbh-1" vertex="1">
                        <mxGeometry x="60" y="1420" width="240" height="120" as="geometry"/>
                    </mxCell>
                </object>
                <object placeholders="1" c4Name="Product Gateway" c4Type="Component" c4Technology="Golang" c4Description="Product Gateway Data Provider" label="&lt;font style=&quot;font-size: 16px&quot;&gt;&lt;b&gt;%c4Name%&lt;/b&gt;&lt;/font&gt;&lt;div&gt;[%c4Type%: %c4Technology%]&lt;/div&gt;&lt;br&gt;&lt;div&gt;&lt;font style=&quot;font-size: 11px&quot;&gt;%c4Description%&lt;/font&gt;&lt;/div&gt;" id="5XONT18Spy3aDExhdSqh-19">
                    <mxCell style="rounded=1;whiteSpace=wrap;html=1;labelBackgroundColor=none;fillColor=#63BEF2;fontColor=#ffffff;align=center;arcSize=6;strokeColor=#2086C9;metaEdit=1;resizable=0;points=[[0.25,0,0],[0.5,0,0],[0.75,0,0],[1,0.25,0],[1,0.5,0],[1,0.75,0],[0.75,1,0],[0.5,1,0],[0.25,1,0],[0,0.75,0],[0,0.5,0],[0,0.25,0]];" parent="AHOczKP4Tpv3Gd1YOSbh-1" vertex="1">
                        <mxGeometry x="2098" y="1423" width="240" height="120" as="geometry"/>
                    </mxCell>
                </object>
                <mxCell id="5XONT18Spy3aDExhdSqh-22" style="edgeStyle=none;html=1;entryX=0.5;entryY=0;entryDx=0;entryDy=0;entryPerimeter=0;" parent="AHOczKP4Tpv3Gd1YOSbh-1" source="WHdR6jFd35SEse9fPfib-17" target="5XONT18Spy3aDExhdSqh-18" edge="1">
                    <mxGeometry relative="1" as="geometry"/>
                </mxCell>
                <mxCell id="5XONT18Spy3aDExhdSqh-24" style="edgeStyle=none;html=1;entryX=0.5;entryY=0;entryDx=0;entryDy=0;entryPerimeter=0;" parent="AHOczKP4Tpv3Gd1YOSbh-1" source="WHdR6jFd35SEse9fPfib-16" target="5XONT18Spy3aDExhdSqh-17" edge="1">
                    <mxGeometry relative="1" as="geometry"/>
                </mxCell>
                <mxCell id="5XONT18Spy3aDExhdSqh-25" style="edgeStyle=none;html=1;entryX=0.5;entryY=0;entryDx=0;entryDy=0;entryPerimeter=0;" parent="AHOczKP4Tpv3Gd1YOSbh-1" source="WHdR6jFd35SEse9fPfib-18" target="5XONT18Spy3aDExhdSqh-19" edge="1">
                    <mxGeometry relative="1" as="geometry"/>
                </mxCell>
                <mxCell id="5XONT18Spy3aDExhdSqh-27" style="edgeStyle=none;html=1;entryX=0.5;entryY=0;entryDx=0;entryDy=0;entryPerimeter=0;" parent="AHOczKP4Tpv3Gd1YOSbh-1" source="WHdR6jFd35SEse9fPfib-13" target="5XONT18Spy3aDExhdSqh-14" edge="1">
                    <mxGeometry relative="1" as="geometry"/>
                </mxCell>
                <object placeholders="1" c4Name="Customer Datasource" c4Type="Component" c4Technology="Golang" c4Description="Layer responsible to communicate with database." label="&lt;font style=&quot;font-size: 16px&quot;&gt;&lt;b&gt;%c4Name%&lt;/b&gt;&lt;/font&gt;&lt;div&gt;[%c4Type%: %c4Technology%]&lt;/div&gt;&lt;br&gt;&lt;div&gt;&lt;font style=&quot;font-size: 11px&quot;&gt;%c4Description%&lt;/font&gt;&lt;/div&gt;" id="5XONT18Spy3aDExhdSqh-28">
                    <mxCell style="rounded=1;whiteSpace=wrap;html=1;labelBackgroundColor=none;fillColor=#63BEF2;fontColor=#ffffff;align=center;arcSize=6;strokeColor=#2086C9;metaEdit=1;resizable=0;points=[[0.25,0,0],[0.5,0,0],[0.75,0,0],[1,0.25,0],[1,0.5,0],[1,0.75,0],[0.75,1,0],[0.5,1,0],[0.25,1,0],[0,0.75,0],[0,0.5,0],[0,0.25,0]];" parent="AHOczKP4Tpv3Gd1YOSbh-1" vertex="1">
                        <mxGeometry x="1194" y="1622" width="240" height="120" as="geometry"/>
                    </mxCell>
                </object>
                <object placeholders="1" c4Name="Staff Datasource" c4Type="Component" c4Technology="Golang" c4Description="Layer responsible to communicate with database." label="&lt;font style=&quot;font-size: 16px&quot;&gt;&lt;b&gt;%c4Name%&lt;/b&gt;&lt;/font&gt;&lt;div&gt;[%c4Type%: %c4Technology%]&lt;/div&gt;&lt;br&gt;&lt;div&gt;&lt;font style=&quot;font-size: 11px&quot;&gt;%c4Description%&lt;/font&gt;&lt;/div&gt;" id="5XONT18Spy3aDExhdSqh-29">
                    <mxCell style="rounded=1;whiteSpace=wrap;html=1;labelBackgroundColor=none;fillColor=#63BEF2;fontColor=#ffffff;align=center;arcSize=6;strokeColor=#2086C9;metaEdit=1;resizable=0;points=[[0.25,0,0],[0.5,0,0],[0.75,0,0],[1,0.25,0],[1,0.5,0],[1,0.75,0],[0.75,1,0],[0.5,1,0],[0.25,1,0],[0,0.75,0],[0,0.5,0],[0,0.25,0]];" parent="AHOczKP4Tpv3Gd1YOSbh-1" vertex="1">
                        <mxGeometry x="1807" y="1619" width="240" height="120" as="geometry"/>
                    </mxCell>
                </object>
                <object placeholders="1" c4Name="Order Datasource" c4Type="Component" c4Technology="Golang" c4Description="Layer responsible to communicate with database." label="&lt;font style=&quot;font-size: 16px&quot;&gt;&lt;b&gt;%c4Name%&lt;/b&gt;&lt;/font&gt;&lt;div&gt;[%c4Type%: %c4Technology%]&lt;/div&gt;&lt;br&gt;&lt;div&gt;&lt;font style=&quot;font-size: 11px&quot;&gt;%c4Description%&lt;/font&gt;&lt;/div&gt;" id="5XONT18Spy3aDExhdSqh-30">
                    <mxCell style="rounded=1;whiteSpace=wrap;html=1;labelBackgroundColor=none;fillColor=#63BEF2;fontColor=#ffffff;align=center;arcSize=6;strokeColor=#2086C9;metaEdit=1;resizable=0;points=[[0.25,0,0],[0.5,0,0],[0.75,0,0],[1,0.25,0],[1,0.5,0],[1,0.75,0],[0.75,1,0],[0.5,1,0],[0.25,1,0],[0,0.75,0],[0,0.5,0],[0,0.25,0]];" parent="AHOczKP4Tpv3Gd1YOSbh-1" vertex="1">
                        <mxGeometry x="350" y="1620" width="240" height="120" as="geometry"/>
                    </mxCell>
                </object>
                <object placeholders="1" c4Name="Order History Datasource" c4Type="Component" c4Technology="Golang" c4Description="Layer responsible to communicate with database." label="&lt;font style=&quot;font-size: 16px&quot;&gt;&lt;b&gt;%c4Name%&lt;/b&gt;&lt;/font&gt;&lt;div&gt;[%c4Type%: %c4Technology%]&lt;/div&gt;&lt;br&gt;&lt;div&gt;&lt;font style=&quot;font-size: 11px&quot;&gt;%c4Description%&lt;/font&gt;&lt;/div&gt;" id="5XONT18Spy3aDExhdSqh-31">
                    <mxCell style="rounded=1;whiteSpace=wrap;html=1;labelBackgroundColor=none;fillColor=#63BEF2;fontColor=#ffffff;align=center;arcSize=6;strokeColor=#2086C9;metaEdit=1;resizable=0;points=[[0.25,0,0],[0.5,0,0],[0.75,0,0],[1,0.25,0],[1,0.5,0],[1,0.75,0],[0.75,1,0],[0.5,1,0],[0.25,1,0],[0,0.75,0],[0,0.5,0],[0,0.25,0]];" parent="AHOczKP4Tpv3Gd1YOSbh-1" vertex="1">
                        <mxGeometry x="640" y="1620" width="240" height="120" as="geometry"/>
                    </mxCell>
                </object>
                <object placeholders="1" c4Name="Payment Datasource" c4Type="Component" c4Technology="Golang" c4Description="Layer responsible to communicate with database." label="&lt;font style=&quot;font-size: 16px&quot;&gt;&lt;b&gt;%c4Name%&lt;/b&gt;&lt;/font&gt;&lt;div&gt;[%c4Type%: %c4Technology%]&lt;/div&gt;&lt;br&gt;&lt;div&gt;&lt;font style=&quot;font-size: 11px&quot;&gt;%c4Description%&lt;/font&gt;&lt;/div&gt;" id="5XONT18Spy3aDExhdSqh-32">
                    <mxCell style="rounded=1;whiteSpace=wrap;html=1;labelBackgroundColor=none;fillColor=#63BEF2;fontColor=#ffffff;align=center;arcSize=6;strokeColor=#2086C9;metaEdit=1;resizable=0;points=[[0.25,0,0],[0.5,0,0],[0.75,0,0],[1,0.25,0],[1,0.5,0],[1,0.75,0],[0.75,1,0],[0.5,1,0],[0.25,1,0],[0,0.75,0],[0,0.5,0],[0,0.25,0]];" parent="AHOczKP4Tpv3Gd1YOSbh-1" vertex="1">
                        <mxGeometry x="60" y="1620" width="240" height="120" as="geometry"/>
                    </mxCell>
                </object>
                <object placeholders="1" c4Name="Product Datasource" c4Type="Component" c4Technology="Golang" c4Description="Layer responsible to communicate with database." label="&lt;font style=&quot;font-size: 16px&quot;&gt;&lt;b&gt;%c4Name%&lt;/b&gt;&lt;/font&gt;&lt;div&gt;[%c4Type%: %c4Technology%]&lt;/div&gt;&lt;br&gt;&lt;div&gt;&lt;font style=&quot;font-size: 11px&quot;&gt;%c4Description%&lt;/font&gt;&lt;/div&gt;" id="5XONT18Spy3aDExhdSqh-33">
                    <mxCell style="rounded=1;whiteSpace=wrap;html=1;labelBackgroundColor=none;fillColor=#63BEF2;fontColor=#ffffff;align=center;arcSize=6;strokeColor=#2086C9;metaEdit=1;resizable=0;points=[[0.25,0,0],[0.5,0,0],[0.75,0,0],[1,0.25,0],[1,0.5,0],[1,0.75,0],[0.75,1,0],[0.5,1,0],[0.25,1,0],[0,0.75,0],[0,0.5,0],[0,0.25,0]];" parent="AHOczKP4Tpv3Gd1YOSbh-1" vertex="1">
                        <mxGeometry x="2098" y="1623" width="240" height="120" as="geometry"/>
                    </mxCell>
                </object>
                <object placeholders="1" c4Name="External Payment Datasource" c4Type="Component" c4Technology="Golang" c4Description="Communicates with external payment service." label="&lt;font style=&quot;font-size: 16px&quot;&gt;&lt;b&gt;%c4Name%&lt;/b&gt;&lt;/font&gt;&lt;div&gt;[%c4Type%: %c4Technology%]&lt;/div&gt;&lt;br&gt;&lt;div&gt;&lt;font style=&quot;font-size: 11px&quot;&gt;%c4Description%&lt;/font&gt;&lt;/div&gt;" id="5XONT18Spy3aDExhdSqh-34">
                    <mxCell style="rounded=1;whiteSpace=wrap;html=1;labelBackgroundColor=none;fillColor=#63BEF2;fontColor=#ffffff;align=center;arcSize=6;strokeColor=#2086C9;metaEdit=1;resizable=0;points=[[0.25,0,0],[0.5,0,0],[0.75,0,0],[1,0.25,0],[1,0.5,0],[1,0.75,0],[0.75,1,0],[0.5,1,0],[0.25,1,0],[0,0.75,0],[0,0.5,0],[0,0.25,0]];" parent="AHOczKP4Tpv3Gd1YOSbh-1" vertex="1">
                        <mxGeometry x="-230" y="1620" width="240" height="120" as="geometry"/>
                    </mxCell>
                </object>
                <mxCell id="5XONT18Spy3aDExhdSqh-35" style="edgeStyle=none;html=1;entryX=0.5;entryY=0;entryDx=0;entryDy=0;entryPerimeter=0;" parent="AHOczKP4Tpv3Gd1YOSbh-1" source="5XONT18Spy3aDExhdSqh-18" target="5XONT18Spy3aDExhdSqh-32" edge="1">
                    <mxGeometry relative="1" as="geometry"/>
                </mxCell>
                <mxCell id="5XONT18Spy3aDExhdSqh-36" style="edgeStyle=elbowEdgeStyle;html=1;entryX=0.5;entryY=0;entryDx=0;entryDy=0;entryPerimeter=0;" parent="AHOczKP4Tpv3Gd1YOSbh-1" source="5XONT18Spy3aDExhdSqh-18" target="5XONT18Spy3aDExhdSqh-34" edge="1">
                    <mxGeometry relative="1" as="geometry">
                        <Array as="points">
                            <mxPoint x="-110" y="1550"/>
                        </Array>
                    </mxGeometry>
                </mxCell>
                <mxCell id="5XONT18Spy3aDExhdSqh-38" style="edgeStyle=orthogonalEdgeStyle;html=1;entryX=0.5;entryY=0;entryDx=0;entryDy=0;entryPerimeter=0;" parent="AHOczKP4Tpv3Gd1YOSbh-1" source="5XONT18Spy3aDExhdSqh-17" target="5XONT18Spy3aDExhdSqh-31" edge="1">
                    <mxGeometry relative="1" as="geometry"/>
                </mxCell>
                <mxCell id="5XONT18Spy3aDExhdSqh-39" style="edgeStyle=orthogonalEdgeStyle;html=1;entryX=0.5;entryY=0;entryDx=0;entryDy=0;entryPerimeter=0;" parent="AHOczKP4Tpv3Gd1YOSbh-1" source="5XONT18Spy3aDExhdSqh-19" target="5XONT18Spy3aDExhdSqh-33" edge="1">
                    <mxGeometry relative="1" as="geometry"/>
                </mxCell>
                <mxCell id="5XONT18Spy3aDExhdSqh-40" style="edgeStyle=orthogonalEdgeStyle;html=1;entryX=0.5;entryY=0;entryDx=0;entryDy=0;entryPerimeter=0;" parent="AHOczKP4Tpv3Gd1YOSbh-1" source="5XONT18Spy3aDExhdSqh-15" target="5XONT18Spy3aDExhdSqh-29" edge="1">
                    <mxGeometry relative="1" as="geometry"/>
                </mxCell>
                <object placeholders="1" c4Name="Database" c4Type="Container" c4Technology="Postgres v17" c4Description="Storage for the Fast Food Restaurant API" label="&lt;font style=&quot;font-size: 16px&quot;&gt;&lt;b&gt;%c4Name%&lt;/b&gt;&lt;/font&gt;&lt;div&gt;[%c4Type%:&amp;nbsp;%c4Technology%]&lt;/div&gt;&lt;br&gt;&lt;div&gt;&lt;font style=&quot;font-size: 11px&quot;&gt;&lt;font color=&quot;#E6E6E6&quot;&gt;%c4Description%&lt;/font&gt;&lt;/div&gt;" id="5XONT18Spy3aDExhdSqh-42">
                    <mxCell style="shape=cylinder3;size=15;whiteSpace=wrap;html=1;boundedLbl=1;rounded=0;labelBackgroundColor=none;fillColor=#23A2D9;fontSize=12;fontColor=#ffffff;align=center;strokeColor=#0E7DAD;metaEdit=1;points=[[0.5,0,0],[1,0.25,0],[1,0.5,0],[1,0.75,0],[0.5,1,0],[0,0.75,0],[0,0.5,0],[0,0.25,0]];resizable=0;" parent="AHOczKP4Tpv3Gd1YOSbh-1" vertex="1">
                        <mxGeometry x="640" y="1990" width="240" height="120" as="geometry"/>
                    </mxCell>
                </object>
                <object placeholders="1" c4Name="Mercado Pago" c4Type="Software System" c4Description="It&#39;s a payment processing system.The API supports multiple payment methods, and provides features like fraud prevention, webhook notifications, and real-time transaction monitoring." label="&lt;font style=&quot;font-size: 16px&quot;&gt;&lt;b&gt;%c4Name%&lt;/b&gt;&lt;/font&gt;&lt;div&gt;[%c4Type%]&lt;/div&gt;&lt;br&gt;&lt;div&gt;&lt;font style=&quot;font-size: 11px&quot;&gt;&lt;font color=&quot;#cccccc&quot;&gt;%c4Description%&lt;/font&gt;&lt;/div&gt;" id="5XONT18Spy3aDExhdSqh-43">
                    <mxCell style="rounded=1;whiteSpace=wrap;html=1;labelBackgroundColor=none;fillColor=#8C8496;fontColor=#ffffff;align=center;arcSize=10;strokeColor=#736782;metaEdit=1;resizable=0;points=[[0.25,0,0],[0.5,0,0],[0.75,0,0],[1,0.25,0],[1,0.5,0],[1,0.75,0],[0.75,1,0],[0.5,1,0],[0.25,1,0],[0,0.75,0],[0,0.5,0],[0,0.25,0]];" parent="AHOczKP4Tpv3Gd1YOSbh-1" vertex="1">
                        <mxGeometry x="-620" y="1620" width="240" height="120" as="geometry"/>
                    </mxCell>
                </object>
                <mxCell id="5XONT18Spy3aDExhdSqh-44" style="edgeStyle=orthogonalEdgeStyle;html=1;entryX=1;entryY=0.5;entryDx=0;entryDy=0;entryPerimeter=0;" parent="AHOczKP4Tpv3Gd1YOSbh-1" source="5XONT18Spy3aDExhdSqh-34" target="5XONT18Spy3aDExhdSqh-43" edge="1">
                    <mxGeometry relative="1" as="geometry"/>
                </mxCell>
                <mxCell id="5XONT18Spy3aDExhdSqh-45" style="edgeStyle=orthogonalEdgeStyle;html=1;entryX=0.5;entryY=0;entryDx=0;entryDy=0;entryPerimeter=0;" parent="AHOczKP4Tpv3Gd1YOSbh-1" source="5XONT18Spy3aDExhdSqh-32" target="5XONT18Spy3aDExhdSqh-42" edge="1">
                    <mxGeometry relative="1" as="geometry">
                        <Array as="points">
                            <mxPoint x="180" y="1920"/>
                            <mxPoint x="760" y="1920"/>
                        </Array>
                    </mxGeometry>
                </mxCell>
                <mxCell id="5XONT18Spy3aDExhdSqh-46" style="edgeStyle=orthogonalEdgeStyle;html=1;entryX=0.5;entryY=0;entryDx=0;entryDy=0;entryPerimeter=0;exitX=0.5;exitY=1;exitDx=0;exitDy=0;exitPerimeter=0;" parent="AHOczKP4Tpv3Gd1YOSbh-1" source="5XONT18Spy3aDExhdSqh-30" target="5XONT18Spy3aDExhdSqh-42" edge="1">
                    <mxGeometry relative="1" as="geometry">
                        <Array as="points">
                            <mxPoint x="470" y="1920"/>
                            <mxPoint x="760" y="1920"/>
                        </Array>
                    </mxGeometry>
                </mxCell>
                <mxCell id="5XONT18Spy3aDExhdSqh-47" style="edgeStyle=orthogonalEdgeStyle;html=1;entryX=0.5;entryY=0;entryDx=0;entryDy=0;entryPerimeter=0;" parent="AHOczKP4Tpv3Gd1YOSbh-1" source="5XONT18Spy3aDExhdSqh-31" target="5XONT18Spy3aDExhdSqh-42" edge="1">
                    <mxGeometry relative="1" as="geometry"/>
                </mxCell>
                <mxCell id="5XONT18Spy3aDExhdSqh-48" style="edgeStyle=orthogonalEdgeStyle;html=1;entryX=0.5;entryY=0;entryDx=0;entryDy=0;entryPerimeter=0;" parent="AHOczKP4Tpv3Gd1YOSbh-1" source="5XONT18Spy3aDExhdSqh-33" target="5XONT18Spy3aDExhdSqh-42" edge="1">
                    <mxGeometry relative="1" as="geometry">
                        <Array as="points">
                            <mxPoint x="2218" y="1920"/>
                            <mxPoint x="760" y="1920"/>
                        </Array>
                    </mxGeometry>
                </mxCell>
                <mxCell id="5XONT18Spy3aDExhdSqh-49" style="edgeStyle=orthogonalEdgeStyle;html=1;entryX=0.5;entryY=0;entryDx=0;entryDy=0;entryPerimeter=0;" parent="AHOczKP4Tpv3Gd1YOSbh-1" source="5XONT18Spy3aDExhdSqh-29" target="5XONT18Spy3aDExhdSqh-42" edge="1">
                    <mxGeometry relative="1" as="geometry">
                        <Array as="points">
                            <mxPoint x="1927" y="1920"/>
                            <mxPoint x="760" y="1920"/>
                        </Array>
                    </mxGeometry>
                </mxCell>
                <object placeholders="1" c4Type="Relationship" c4Technology="JSON/HTTP" c4Description="Makes API postback" label="&lt;div style=&quot;text-align: left&quot;&gt;&lt;div style=&quot;text-align: center&quot;&gt;&lt;b&gt;%c4Description%&lt;/b&gt;&lt;/div&gt;&lt;div style=&quot;text-align: center&quot;&gt;[%c4Technology%]&lt;/div&gt;&lt;/div&gt;" id="5XONT18Spy3aDExhdSqh-53">
                    <mxCell style="endArrow=blockThin;html=1;fontSize=10;fontColor=#404040;strokeWidth=1;endFill=1;strokeColor=#828282;elbow=vertical;metaEdit=1;endSize=14;startSize=14;jumpStyle=arc;jumpSize=16;rounded=0;edgeStyle=orthogonalEdgeStyle;exitX=0.5;exitY=0;exitDx=0;exitDy=0;exitPerimeter=0;entryX=0;entryY=0.25;entryDx=0;entryDy=0;entryPerimeter=0;" parent="AHOczKP4Tpv3Gd1YOSbh-1" source="5XONT18Spy3aDExhdSqh-43" target="5XONT18Spy3aDExhdSqh-18" edge="1">
                        <mxGeometry x="0.1973" y="24" width="240" relative="1" as="geometry">
                            <mxPoint x="-517" y="1465" as="sourcePoint"/>
                            <mxPoint x="-277" y="1465" as="targetPoint"/>
                            <mxPoint as="offset"/>
                        </mxGeometry>
                    </mxCell>
                </object>
                <object placeholders="1" c4Name="Totem Web Application" c4Type="Container" c4Technology="React" c4Description="Web Application enabling customers to creating new orders." label="&lt;font style=&quot;font-size: 16px&quot;&gt;&lt;b&gt;%c4Name%&lt;/b&gt;&lt;/font&gt;&lt;div&gt;[%c4Type%: %c4Technology%]&lt;/div&gt;&lt;br&gt;&lt;div&gt;&lt;font style=&quot;font-size: 11px&quot;&gt;&lt;font color=&quot;#E6E6E6&quot;&gt;%c4Description%&lt;/font&gt;&lt;/div&gt;" id="5XONT18Spy3aDExhdSqh-55">
                    <mxCell style="rounded=1;whiteSpace=wrap;html=1;fontSize=11;labelBackgroundColor=none;fillColor=#23A2D9;fontColor=#ffffff;align=center;arcSize=10;strokeColor=#0E7DAD;metaEdit=1;resizable=0;points=[[0.25,0,0],[0.5,0,0],[0.75,0,0],[1,0.25,0],[1,0.5,0],[1,0.75,0],[0.75,1,0],[0.5,1,0],[0.25,1,0],[0,0.75,0],[0,0.5,0],[0,0.25,0]];" parent="AHOczKP4Tpv3Gd1YOSbh-1" vertex="1">
                        <mxGeometry x="350" y="447" width="240" height="120" as="geometry"/>
                    </mxCell>
                </object>
                <mxCell id="5XONT18Spy3aDExhdSqh-67" style="edgeStyle=orthogonalEdgeStyle;html=1;" parent="AHOczKP4Tpv3Gd1YOSbh-1" source="5XONT18Spy3aDExhdSqh-56" target="WHdR6jFd35SEse9fPfib-3" edge="1">
                    <mxGeometry relative="1" as="geometry">
                        <Array as="points">
                            <mxPoint x="1080" y="802"/>
                            <mxPoint x="470" y="802"/>
                        </Array>
                    </mxGeometry>
                </mxCell>
                <mxCell id="5XONT18Spy3aDExhdSqh-68" style="edgeStyle=orthogonalEdgeStyle;html=1;entryX=0.5;entryY=0;entryDx=0;entryDy=0;entryPerimeter=0;" parent="AHOczKP4Tpv3Gd1YOSbh-1" source="5XONT18Spy3aDExhdSqh-56" target="WHdR6jFd35SEse9fPfib-4" edge="1">
                    <mxGeometry relative="1" as="geometry">
                        <mxPoint x="1080" y="723.1321880634014" as="targetPoint"/>
                        <Array as="points">
                            <mxPoint x="1080" y="802"/>
                            <mxPoint x="760" y="802"/>
                        </Array>
                    </mxGeometry>
                </mxCell>
                <mxCell id="5XONT18Spy3aDExhdSqh-71" style="edgeStyle=orthogonalEdgeStyle;html=1;entryX=0.5;entryY=0;entryDx=0;entryDy=0;entryPerimeter=0;" parent="AHOczKP4Tpv3Gd1YOSbh-1" source="5XONT18Spy3aDExhdSqh-56" target="WHdR6jFd35SEse9fPfib-2" edge="1">
                    <mxGeometry relative="1" as="geometry">
                        <Array as="points">
                            <mxPoint x="1080" y="798"/>
                            <mxPoint x="1927" y="798"/>
                        </Array>
                    </mxGeometry>
                </mxCell>
                <mxCell id="J-lzOcCUCQJlhR2-DVTr-14" style="edgeStyle=orthogonalEdgeStyle;html=1;" edge="1" parent="AHOczKP4Tpv3Gd1YOSbh-1" source="5XONT18Spy3aDExhdSqh-56" target="J-lzOcCUCQJlhR2-DVTr-2">
                    <mxGeometry relative="1" as="geometry">
                        <Array as="points">
                            <mxPoint x="1080" y="770"/>
                            <mxPoint x="1080" y="770"/>
                        </Array>
                    </mxGeometry>
                </mxCell>
                <mxCell id="J-lzOcCUCQJlhR2-DVTr-25" style="edgeStyle=orthogonalEdgeStyle;html=1;entryX=0.5;entryY=0;entryDx=0;entryDy=0;entryPerimeter=0;" edge="1" parent="AHOczKP4Tpv3Gd1YOSbh-1" source="5XONT18Spy3aDExhdSqh-56" target="J-lzOcCUCQJlhR2-DVTr-15">
                    <mxGeometry relative="1" as="geometry">
                        <Array as="points">
                            <mxPoint x="1080" y="802"/>
                            <mxPoint x="1627" y="802"/>
                        </Array>
                    </mxGeometry>
                </mxCell>
                <object placeholders="1" c4Name="Administrative Web Application" c4Type="Container" c4Technology="React" c4Description="Web Application to staff to manage orders." label="&lt;font style=&quot;font-size: 16px&quot;&gt;&lt;b&gt;%c4Name%&lt;/b&gt;&lt;/font&gt;&lt;div&gt;[%c4Type%: %c4Technology%]&lt;/div&gt;&lt;br&gt;&lt;div&gt;&lt;font style=&quot;font-size: 11px&quot;&gt;&lt;font color=&quot;#E6E6E6&quot;&gt;%c4Description%&lt;/font&gt;&lt;/div&gt;" id="5XONT18Spy3aDExhdSqh-56">
                    <mxCell style="rounded=1;whiteSpace=wrap;html=1;fontSize=11;labelBackgroundColor=none;fillColor=#23A2D9;fontColor=#ffffff;align=center;arcSize=10;strokeColor=#0E7DAD;metaEdit=1;resizable=0;points=[[0.25,0,0],[0.5,0,0],[0.75,0,0],[1,0.25,0],[1,0.5,0],[1,0.75,0],[0.75,1,0],[0.5,1,0],[0.25,1,0],[0,0.75,0],[0,0.5,0],[0,0.25,0]];" parent="AHOczKP4Tpv3Gd1YOSbh-1" vertex="1">
                        <mxGeometry x="960" y="447" width="240" height="120" as="geometry"/>
                    </mxCell>
                </object>
                <object placeholders="1" c4Type="Relationship" c4Technology="JSON/HTTP" c4Description="Payment Checkout" label="&lt;div style=&quot;text-align: left&quot;&gt;&lt;div style=&quot;text-align: center&quot;&gt;&lt;b&gt;%c4Description%&lt;/b&gt;&lt;/div&gt;&lt;div style=&quot;text-align: center&quot;&gt;[%c4Technology%]&lt;/div&gt;&lt;/div&gt;" id="5XONT18Spy3aDExhdSqh-58">
                    <mxCell style="endArrow=blockThin;html=1;fontSize=10;fontColor=#404040;strokeWidth=1;endFill=1;strokeColor=#828282;elbow=vertical;metaEdit=1;endSize=14;startSize=14;jumpStyle=arc;jumpSize=16;rounded=0;edgeStyle=orthogonalEdgeStyle;exitX=0.5;exitY=1;exitDx=0;exitDy=0;exitPerimeter=0;entryX=0.5;entryY=0;entryDx=0;entryDy=0;entryPerimeter=0;" parent="AHOczKP4Tpv3Gd1YOSbh-1" source="5XONT18Spy3aDExhdSqh-55" target="WHdR6jFd35SEse9fPfib-5" edge="1">
                        <mxGeometry x="0.3127" y="19" width="240" relative="1" as="geometry">
                            <mxPoint x="231" y="671" as="sourcePoint"/>
                            <mxPoint x="471" y="671" as="targetPoint"/>
                            <mxPoint as="offset"/>
                        </mxGeometry>
                    </mxCell>
                </object>
                <object placeholders="1" c4Type="Relationship" c4Technology="JSON/HTTP" c4Description="Order Management (create, add/update/remove products)" label="&lt;div style=&quot;text-align: left&quot;&gt;&lt;div style=&quot;text-align: center&quot;&gt;&lt;b&gt;%c4Description%&lt;/b&gt;&lt;/div&gt;&lt;div style=&quot;text-align: center&quot;&gt;[%c4Technology%]&lt;/div&gt;&lt;/div&gt;" id="5XONT18Spy3aDExhdSqh-59">
                    <mxCell style="endArrow=blockThin;html=1;fontSize=10;fontColor=#404040;strokeWidth=1;endFill=1;strokeColor=#828282;elbow=vertical;metaEdit=1;endSize=14;startSize=14;jumpStyle=arc;jumpSize=16;rounded=0;edgeStyle=orthogonalEdgeStyle;exitX=0.5;exitY=1;exitDx=0;exitDy=0;exitPerimeter=0;" parent="AHOczKP4Tpv3Gd1YOSbh-1" source="5XONT18Spy3aDExhdSqh-55" edge="1">
                        <mxGeometry x="0.179" y="6" width="240" relative="1" as="geometry">
                            <mxPoint x="501" y="577" as="sourcePoint"/>
                            <mxPoint x="469" y="837" as="targetPoint"/>
                            <mxPoint y="-1" as="offset"/>
                        </mxGeometry>
                    </mxCell>
                </object>
                <mxCell id="5XONT18Spy3aDExhdSqh-60" style="edgeStyle=orthogonalEdgeStyle;html=1;entryX=0.5;entryY=0;entryDx=0;entryDy=0;entryPerimeter=0;exitX=0.5;exitY=1;exitDx=0;exitDy=0;exitPerimeter=0;" parent="AHOczKP4Tpv3Gd1YOSbh-1" source="5XONT18Spy3aDExhdSqh-28" target="5XONT18Spy3aDExhdSqh-42" edge="1">
                    <mxGeometry relative="1" as="geometry">
                        <Array as="points">
                            <mxPoint x="1314" y="1921"/>
                            <mxPoint x="760" y="1921"/>
                        </Array>
                    </mxGeometry>
                </mxCell>
                <object placeholders="1" c4Type="Relationship" c4Technology="JSON/HTTP" c4Description="Customer authentication and get customer informations" label="&lt;div style=&quot;text-align: left&quot;&gt;&lt;div style=&quot;text-align: center&quot;&gt;&lt;b&gt;%c4Description%&lt;/b&gt;&lt;/div&gt;&lt;div style=&quot;text-align: center&quot;&gt;[%c4Technology%]&lt;/div&gt;&lt;/div&gt;" id="5XONT18Spy3aDExhdSqh-62">
                    <mxCell style="endArrow=blockThin;html=1;fontSize=10;fontColor=#404040;strokeWidth=1;endFill=1;strokeColor=#828282;elbow=vertical;metaEdit=1;endSize=14;startSize=14;jumpStyle=arc;jumpSize=16;rounded=0;edgeStyle=orthogonalEdgeStyle;entryX=0.5;entryY=0;entryDx=0;entryDy=0;entryPerimeter=0;exitX=0.5;exitY=1;exitDx=0;exitDy=0;exitPerimeter=0;" parent="AHOczKP4Tpv3Gd1YOSbh-1" source="5XONT18Spy3aDExhdSqh-55" target="WHdR6jFd35SEse9fPfib-0" edge="1">
                        <mxGeometry x="0.0739" y="-20" width="240" relative="1" as="geometry">
                            <mxPoint x="470" y="564" as="sourcePoint"/>
                            <mxPoint x="823" y="812" as="targetPoint"/>
                            <mxPoint as="offset"/>
                            <Array as="points">
                                <mxPoint x="470" y="707"/>
                                <mxPoint x="1045" y="707"/>
                                <mxPoint x="1045" y="798"/>
                                <mxPoint x="1314" y="798"/>
                            </Array>
                        </mxGeometry>
                    </mxCell>
                </object>
                <mxCell id="5XONT18Spy3aDExhdSqh-66" style="edgeStyle=orthogonalEdgeStyle;html=1;entryX=0.5;entryY=0;entryDx=0;entryDy=0;entryPerimeter=0;" parent="AHOczKP4Tpv3Gd1YOSbh-1" source="5XONT18Spy3aDExhdSqh-56" target="WHdR6jFd35SEse9fPfib-5" edge="1">
                    <mxGeometry relative="1" as="geometry">
                        <Array as="points">
                            <mxPoint x="1080" y="800"/>
                            <mxPoint x="180" y="800"/>
                        </Array>
                    </mxGeometry>
                </mxCell>
                <mxCell id="5XONT18Spy3aDExhdSqh-69" style="edgeStyle=orthogonalEdgeStyle;html=1;entryX=0.646;entryY=0.026;entryDx=0;entryDy=0;entryPerimeter=0;" parent="AHOczKP4Tpv3Gd1YOSbh-1" source="5XONT18Spy3aDExhdSqh-56" target="WHdR6jFd35SEse9fPfib-0" edge="1">
                    <mxGeometry relative="1" as="geometry">
                        <Array as="points">
                            <mxPoint x="1080" y="805"/>
                            <mxPoint x="1349" y="805"/>
                        </Array>
                    </mxGeometry>
                </mxCell>
                <mxCell id="5XONT18Spy3aDExhdSqh-70" style="edgeStyle=orthogonalEdgeStyle;html=1;entryX=0.5;entryY=0;entryDx=0;entryDy=0;entryPerimeter=0;" parent="AHOczKP4Tpv3Gd1YOSbh-1" source="5XONT18Spy3aDExhdSqh-56" target="WHdR6jFd35SEse9fPfib-6" edge="1">
                    <mxGeometry relative="1" as="geometry">
                        <Array as="points">
                            <mxPoint x="1080" y="800"/>
                            <mxPoint x="2213" y="800"/>
                            <mxPoint x="2213" y="843"/>
                        </Array>
                    </mxGeometry>
                </mxCell>
                <mxCell id="5XONT18Spy3aDExhdSqh-72" value="Access to all management endpoints&lt;br&gt;[JSON/HTTP]" style="text;html=1;align=center;verticalAlign=middle;resizable=0;points=[];autosize=1;strokeColor=none;fillColor=none;" parent="AHOczKP4Tpv3Gd1YOSbh-1" vertex="1">
                    <mxGeometry x="1084" y="605" width="214" height="41" as="geometry"/>
                </mxCell>
                <mxCell id="J-lzOcCUCQJlhR2-DVTr-1" style="edgeStyle=none;html=1;" edge="1" parent="AHOczKP4Tpv3Gd1YOSbh-1" source="J-lzOcCUCQJlhR2-DVTr-2" target="J-lzOcCUCQJlhR2-DVTr-3">
                    <mxGeometry relative="1" as="geometry"/>
                </mxCell>
                <object placeholders="1" c4Name="Order Product Handler" c4Type="Component" c4Technology="Golang" c4Description="Responsible to manage order products requests, add, update or remove products to an order." label="&lt;font style=&quot;font-size: 16px&quot;&gt;&lt;b&gt;%c4Name%&lt;/b&gt;&lt;/font&gt;&lt;div&gt;[%c4Type%: %c4Technology%]&lt;/div&gt;&lt;br&gt;&lt;div&gt;&lt;font style=&quot;font-size: 11px&quot;&gt;%c4Description%&lt;/font&gt;&lt;/div&gt;" id="J-lzOcCUCQJlhR2-DVTr-2">
                    <mxCell style="rounded=1;whiteSpace=wrap;html=1;labelBackgroundColor=none;fillColor=#63BEF2;fontColor=#ffffff;align=center;arcSize=6;strokeColor=#2086C9;metaEdit=1;resizable=0;points=[[0.25,0,0],[0.5,0,0],[0.75,0,0],[1,0.25,0],[1,0.5,0],[1,0.75,0],[0.75,1,0],[0.5,1,0],[0.25,1,0],[0,0.75,0],[0,0.5,0],[0,0.25,0]];" vertex="1" parent="AHOczKP4Tpv3Gd1YOSbh-1">
                        <mxGeometry x="917" y="836" width="240" height="120" as="geometry"/>
                    </mxCell>
                </object>
                <object placeholders="1" c4Name="Order Product Controller" c4Type="Component" c4Technology="Golang" c4Description="Entrypoint of order products use cases." label="&lt;font style=&quot;font-size: 16px&quot;&gt;&lt;b&gt;%c4Name%&lt;/b&gt;&lt;/font&gt;&lt;div&gt;[%c4Type%: %c4Technology%]&lt;/div&gt;&lt;br&gt;&lt;div&gt;&lt;font style=&quot;font-size: 11px&quot;&gt;%c4Description%&lt;/font&gt;&lt;/div&gt;" id="J-lzOcCUCQJlhR2-DVTr-3">
                    <mxCell style="rounded=1;whiteSpace=wrap;html=1;labelBackgroundColor=none;fillColor=#63BEF2;fontColor=#ffffff;align=center;arcSize=6;strokeColor=#2086C9;metaEdit=1;resizable=0;points=[[0.25,0,0],[0.5,0,0],[0.75,0,0],[1,0.25,0],[1,0.5,0],[1,0.75,0],[0.75,1,0],[0.5,1,0],[0.25,1,0],[0,0.75,0],[0,0.5,0],[0,0.25,0]];" vertex="1" parent="AHOczKP4Tpv3Gd1YOSbh-1">
                        <mxGeometry x="917" y="1032" width="240" height="120" as="geometry"/>
                    </mxCell>
                </object>
                <object placeholders="1" c4Name="Order Product UseCases" c4Type="Component" c4Technology="Golang" c4Description="Responsible to manage order products." label="&lt;font style=&quot;font-size: 16px&quot;&gt;&lt;b&gt;%c4Name%&lt;/b&gt;&lt;/font&gt;&lt;div&gt;[%c4Type%: %c4Technology%]&lt;/div&gt;&lt;br&gt;&lt;div&gt;&lt;font style=&quot;font-size: 11px&quot;&gt;%c4Description%&lt;/font&gt;&lt;/div&gt;" id="J-lzOcCUCQJlhR2-DVTr-4">
                    <mxCell style="rounded=1;whiteSpace=wrap;html=1;labelBackgroundColor=none;fillColor=#63BEF2;fontColor=#ffffff;align=center;arcSize=6;strokeColor=#2086C9;metaEdit=1;resizable=0;points=[[0.25,0,0],[0.5,0,0],[0.75,0,0],[1,0.25,0],[1,0.5,0],[1,0.75,0],[0.75,1,0],[0.5,1,0],[0.25,1,0],[0,0.75,0],[0,0.5,0],[0,0.25,0]];" vertex="1" parent="AHOczKP4Tpv3Gd1YOSbh-1">
                        <mxGeometry x="917" y="1216" width="240" height="120" as="geometry"/>
                    </mxCell>
                </object>
                <mxCell id="J-lzOcCUCQJlhR2-DVTr-5" style="edgeStyle=none;html=1;entryX=0.5;entryY=0;entryDx=0;entryDy=0;entryPerimeter=0;" edge="1" parent="AHOczKP4Tpv3Gd1YOSbh-1" source="J-lzOcCUCQJlhR2-DVTr-3" target="J-lzOcCUCQJlhR2-DVTr-4">
                    <mxGeometry relative="1" as="geometry"/>
                </mxCell>
                <object placeholders="1" c4Name="Order Product Gateway" c4Type="Component" c4Technology="Golang" c4Description="Order Product Gateway Data Provider" label="&lt;font style=&quot;font-size: 16px&quot;&gt;&lt;b&gt;%c4Name%&lt;/b&gt;&lt;/font&gt;&lt;div&gt;[%c4Type%: %c4Technology%]&lt;/div&gt;&lt;br&gt;&lt;div&gt;&lt;font style=&quot;font-size: 11px&quot;&gt;%c4Description%&lt;/font&gt;&lt;/div&gt;" id="J-lzOcCUCQJlhR2-DVTr-6">
                    <mxCell style="rounded=1;whiteSpace=wrap;html=1;labelBackgroundColor=none;fillColor=#63BEF2;fontColor=#ffffff;align=center;arcSize=6;strokeColor=#2086C9;metaEdit=1;resizable=0;points=[[0.25,0,0],[0.5,0,0],[0.75,0,0],[1,0.25,0],[1,0.5,0],[1,0.75,0],[0.75,1,0],[0.5,1,0],[0.25,1,0],[0,0.75,0],[0,0.5,0],[0,0.25,0]];" vertex="1" parent="AHOczKP4Tpv3Gd1YOSbh-1">
                        <mxGeometry x="917" y="1416" width="240" height="120" as="geometry"/>
                    </mxCell>
                </object>
                <mxCell id="J-lzOcCUCQJlhR2-DVTr-7" style="edgeStyle=none;html=1;entryX=0.5;entryY=0;entryDx=0;entryDy=0;entryPerimeter=0;" edge="1" parent="AHOczKP4Tpv3Gd1YOSbh-1" source="J-lzOcCUCQJlhR2-DVTr-4" target="J-lzOcCUCQJlhR2-DVTr-6">
                    <mxGeometry relative="1" as="geometry"/>
                </mxCell>
                <object placeholders="1" c4Name="Order Product Datasource" c4Type="Component" c4Technology="Golang" c4Description="Layer responsible to communicate with database." label="&lt;font style=&quot;font-size: 16px&quot;&gt;&lt;b&gt;%c4Name%&lt;/b&gt;&lt;/font&gt;&lt;div&gt;[%c4Type%: %c4Technology%]&lt;/div&gt;&lt;br&gt;&lt;div&gt;&lt;font style=&quot;font-size: 11px&quot;&gt;%c4Description%&lt;/font&gt;&lt;/div&gt;" id="J-lzOcCUCQJlhR2-DVTr-8">
                    <mxCell style="rounded=1;whiteSpace=wrap;html=1;labelBackgroundColor=none;fillColor=#63BEF2;fontColor=#ffffff;align=center;arcSize=6;strokeColor=#2086C9;metaEdit=1;resizable=0;points=[[0.25,0,0],[0.5,0,0],[0.75,0,0],[1,0.25,0],[1,0.5,0],[1,0.75,0],[0.75,1,0],[0.5,1,0],[0.25,1,0],[0,0.75,0],[0,0.5,0],[0,0.25,0]];" vertex="1" parent="AHOczKP4Tpv3Gd1YOSbh-1">
                        <mxGeometry x="917" y="1616" width="240" height="120" as="geometry"/>
                    </mxCell>
                </object>
                <mxCell id="J-lzOcCUCQJlhR2-DVTr-9" style="edgeStyle=orthogonalEdgeStyle;html=1;entryX=0.5;entryY=0;entryDx=0;entryDy=0;entryPerimeter=0;" edge="1" parent="AHOczKP4Tpv3Gd1YOSbh-1" source="J-lzOcCUCQJlhR2-DVTr-6" target="J-lzOcCUCQJlhR2-DVTr-8">
                    <mxGeometry relative="1" as="geometry"/>
                </mxCell>
                <mxCell id="J-lzOcCUCQJlhR2-DVTr-12" style="edgeStyle=orthogonalEdgeStyle;html=1;entryX=0.5;entryY=0;entryDx=0;entryDy=0;entryPerimeter=0;" edge="1" parent="AHOczKP4Tpv3Gd1YOSbh-1" source="J-lzOcCUCQJlhR2-DVTr-8" target="5XONT18Spy3aDExhdSqh-42">
                    <mxGeometry relative="1" as="geometry">
                        <Array as="points">
                            <mxPoint x="1039" y="1920"/>
                            <mxPoint x="760" y="1920"/>
                        </Array>
                    </mxGeometry>
                </mxCell>
                <object placeholders="1" c4Type="Relationship" c4Description="uses" label="&lt;div style=&quot;text-align: left&quot;&gt;&lt;div style=&quot;text-align: center&quot;&gt;&lt;b&gt;%c4Description%&lt;/b&gt;&lt;/div&gt;" id="J-lzOcCUCQJlhR2-DVTr-13">
                    <mxCell style="endArrow=blockThin;html=1;fontSize=10;fontColor=#404040;strokeWidth=1;endFill=1;strokeColor=#828282;elbow=vertical;metaEdit=1;endSize=14;startSize=14;jumpStyle=arc;jumpSize=16;rounded=0;edgeStyle=orthogonalEdgeStyle;entryX=0.25;entryY=1;entryDx=0;entryDy=0;entryPerimeter=0;exitX=0.75;exitY=1;exitDx=0;exitDy=0;exitPerimeter=0;" edge="1" parent="AHOczKP4Tpv3Gd1YOSbh-1" source="WHdR6jFd35SEse9fPfib-15" target="J-lzOcCUCQJlhR2-DVTr-4">
                        <mxGeometry x="-0.5319" y="-8" width="240" relative="1" as="geometry">
                            <mxPoint x="562.0400000000001" y="1361.4" as="sourcePoint"/>
                            <mxPoint x="947.3599999999998" y="1357.9999999999998" as="targetPoint"/>
                            <mxPoint as="offset"/>
                            <Array as="points">
                                <mxPoint x="530" y="1373"/>
                                <mxPoint x="977" y="1373"/>
                            </Array>
                        </mxGeometry>
                    </mxCell>
                </object>
                <object placeholders="1" c4Name="Auth Handler" c4Type="Component" c4Technology="Golang" c4Description="Responsible autenticate and register customers." label="&lt;font style=&quot;font-size: 16px&quot;&gt;&lt;b&gt;%c4Name%&lt;/b&gt;&lt;/font&gt;&lt;div&gt;[%c4Type%: %c4Technology%]&lt;/div&gt;&lt;br&gt;&lt;div&gt;&lt;font style=&quot;font-size: 11px&quot;&gt;%c4Description%&lt;/font&gt;&lt;/div&gt;" id="J-lzOcCUCQJlhR2-DVTr-15">
                    <mxCell style="rounded=1;whiteSpace=wrap;html=1;labelBackgroundColor=none;fillColor=#63BEF2;fontColor=#ffffff;align=center;arcSize=6;strokeColor=#2086C9;metaEdit=1;resizable=0;points=[[0.25,0,0],[0.5,0,0],[0.75,0,0],[1,0.25,0],[1,0.5,0],[1,0.75,0],[0.75,1,0],[0.5,1,0],[0.25,1,0],[0,0.75,0],[0,0.5,0],[0,0.25,0]];" vertex="1" parent="AHOczKP4Tpv3Gd1YOSbh-1">
                        <mxGeometry x="1507" y="839" width="240" height="120" as="geometry"/>
                    </mxCell>
                </object>
                <object placeholders="1" c4Name="Auth Controller" c4Type="Component" c4Technology="Golang" c4Description="Entrypoint of auth use cases." label="&lt;font style=&quot;font-size: 16px&quot;&gt;&lt;b&gt;%c4Name%&lt;/b&gt;&lt;/font&gt;&lt;div&gt;[%c4Type%: %c4Technology%]&lt;/div&gt;&lt;br&gt;&lt;div&gt;&lt;font style=&quot;font-size: 11px&quot;&gt;%c4Description%&lt;/font&gt;&lt;/div&gt;" id="J-lzOcCUCQJlhR2-DVTr-16">
                    <mxCell style="rounded=1;whiteSpace=wrap;html=1;labelBackgroundColor=none;fillColor=#63BEF2;fontColor=#ffffff;align=center;arcSize=6;strokeColor=#2086C9;metaEdit=1;resizable=0;points=[[0.25,0,0],[0.5,0,0],[0.75,0,0],[1,0.25,0],[1,0.5,0],[1,0.75,0],[0.75,1,0],[0.5,1,0],[0.25,1,0],[0,0.75,0],[0,0.5,0],[0,0.25,0]];" vertex="1" parent="AHOczKP4Tpv3Gd1YOSbh-1">
                        <mxGeometry x="1507" y="1029" width="240" height="120" as="geometry"/>
                    </mxCell>
                </object>
                <object placeholders="1" c4Name="Auth UseCase" c4Type="Component" c4Technology="Golang" c4Description="Responsible to register and authenticate customers." label="&lt;font style=&quot;font-size: 16px&quot;&gt;&lt;b&gt;%c4Name%&lt;/b&gt;&lt;/font&gt;&lt;div&gt;[%c4Type%: %c4Technology%]&lt;/div&gt;&lt;br&gt;&lt;div&gt;&lt;font style=&quot;font-size: 11px&quot;&gt;%c4Description%&lt;/font&gt;&lt;/div&gt;" id="J-lzOcCUCQJlhR2-DVTr-17">
                    <mxCell style="rounded=1;whiteSpace=wrap;html=1;labelBackgroundColor=none;fillColor=#63BEF2;fontColor=#ffffff;align=center;arcSize=6;strokeColor=#2086C9;metaEdit=1;resizable=0;points=[[0.25,0,0],[0.5,0,0],[0.75,0,0],[1,0.25,0],[1,0.5,0],[1,0.75,0],[0.75,1,0],[0.5,1,0],[0.25,1,0],[0,0.75,0],[0,0.5,0],[0,0.25,0]];" vertex="1" parent="AHOczKP4Tpv3Gd1YOSbh-1">
                        <mxGeometry x="1507" y="1221" width="240" height="120" as="geometry"/>
                    </mxCell>
                </object>
                <mxCell id="J-lzOcCUCQJlhR2-DVTr-18" style="edgeStyle=none;html=1;entryX=0.5;entryY=0;entryDx=0;entryDy=0;entryPerimeter=0;" edge="1" parent="AHOczKP4Tpv3Gd1YOSbh-1" source="J-lzOcCUCQJlhR2-DVTr-15" target="J-lzOcCUCQJlhR2-DVTr-16">
                    <mxGeometry relative="1" as="geometry"/>
                </mxCell>
                <mxCell id="J-lzOcCUCQJlhR2-DVTr-19" style="edgeStyle=none;html=1;entryX=0.5;entryY=0;entryDx=0;entryDy=0;entryPerimeter=0;" edge="1" parent="AHOczKP4Tpv3Gd1YOSbh-1" source="J-lzOcCUCQJlhR2-DVTr-16" target="J-lzOcCUCQJlhR2-DVTr-17">
                    <mxGeometry relative="1" as="geometry"/>
                </mxCell>
                <object placeholders="1" c4Type="Relationship" c4Description="uses" label="&lt;div style=&quot;text-align: left&quot;&gt;&lt;div style=&quot;text-align: center&quot;&gt;&lt;b&gt;%c4Description%&lt;/b&gt;&lt;/div&gt;" id="J-lzOcCUCQJlhR2-DVTr-24">
                    <mxCell style="endArrow=blockThin;html=1;fontSize=10;fontColor=#404040;strokeWidth=1;endFill=1;strokeColor=#828282;elbow=vertical;metaEdit=1;endSize=14;startSize=14;jumpStyle=arc;jumpSize=16;rounded=0;edgeStyle=orthogonalEdgeStyle;exitX=0;exitY=0.5;exitDx=0;exitDy=0;exitPerimeter=0;entryX=1;entryY=0.5;entryDx=0;entryDy=0;entryPerimeter=0;" edge="1" parent="AHOczKP4Tpv3Gd1YOSbh-1" source="J-lzOcCUCQJlhR2-DVTr-17" target="WHdR6jFd35SEse9fPfib-13">
                        <mxGeometry x="-0.2449" y="10" width="240" relative="1" as="geometry">
                            <mxPoint x="600" y="1290" as="sourcePoint"/>
                            <mxPoint x="1612" y="1432" as="targetPoint"/>
                            <mxPoint as="offset"/>
                            <Array as="points">
                                <mxPoint x="1507" y="1282"/>
                            </Array>
                        </mxGeometry>
                    </mxCell>
                </object>
                <mxCell id="J-lzOcCUCQJlhR2-DVTr-26" value="Text" style="text;html=1;align=center;verticalAlign=middle;resizable=0;points=[];autosize=1;strokeColor=none;fillColor=none;" vertex="1" parent="AHOczKP4Tpv3Gd1YOSbh-1">
                    <mxGeometry x="2534" y="775" width="40" height="26" as="geometry"/>
                </mxCell>
            </root>
        </mxGraphModel>
    </diagram>
</mxfile>